<svg id="Capa_1" data-name="Capa 1" xmlns="http://www.w3.org/2000/svg" xmlns:xlink="http://www.w3.org/1999/xlink" viewBox="0 0 236.15 36"><defs><clipPath id="clip-path"><rect x="-52.94" y="-3" width="288" height="44" style="fill:none"/></clipPath><clipPath id="clip-path-2"><rect x="-52.94" y="-3" width="288" height="44" style="fill:none"/></clipPath><clipPath id="clip-path-8"><rect x="63.56" y="10" width="1" height="16" style="fill:none"/></clipPath><clipPath id="clip-path-9"><path d="M32.83,12.63v4.08h2.52a2,2,0,0,0,1.49-.6,2,2,0,0,0,.6-1.44,1.92,1.92,0,0,0-.6-1.42,2,2,0,0,0-1.49-.62Zm0,5.52v4.74h-1.5V11.2h4a3.63,3.63,0,0,1,2.58,1,3.38,3.38,0,0,1,0,4.95,3.63,3.63,0,0,1-2.58,1H32.83Z" style="fill:none;clip-path:url(#clip-path-2)"/></clipPath><clipPath id="clip-path-10"><path d="M40.5,20.44a1.21,1.21,0,0,0,.5,1,1.83,1.83,0,0,0,1.17.39,2.38,2.38,0,0,0,1.69-.7,2.19,2.19,0,0,0,.74-1.65,3.09,3.09,0,0,0-2-.56,2.59,2.59,0,0,0-1.53.44,1.3,1.3,0,0,0-.61,1.09m2-5.81a3.74,3.74,0,0,1,2.63.89A3.16,3.16,0,0,1,46,18v4.93H44.6V21.77h-.07A2.88,2.88,0,0,1,42,23.14a3.27,3.27,0,0,1-2.22-.78,2.52,2.52,0,0,1-.89-2,2.37,2.37,0,0,1,.94-2,4,4,0,0,1,2.51-.74,4.44,4.44,0,0,1,2.21.49v-.34A1.72,1.72,0,0,0,44,16.5,2.15,2.15,0,0,0,42.52,16a2.29,2.29,0,0,0-2,1.06l-1.32-.83a3.69,3.69,0,0,1,3.24-1.57" style="fill:none;clip-path:url(#clip-path-2)"/></clipPath><clipPath id="clip-path-11"><polygon points="54.29 14.89 49.27 26.42 47.72 26.42 49.59 22.38 46.28 14.89 47.92 14.89 50.31 20.64 50.34 20.64 52.66 14.89 54.29 14.89 54.29 14.89" style="fill:none;clip-path:url(#clip-path-2)"/></clipPath><clipPath id="clip-path-12"><path d="M26.75,17.13a7.67,7.67,0,0,0-.12-1.37H20.29v2.59h3.63a3.14,3.14,0,0,1-1.34,2v1.68h2.17a6.57,6.57,0,0,0,2-4.94" style="fill:none;clip-path:url(#clip-path-2)"/></clipPath><clipPath id="clip-path-13"><path d="M20.29,23.7a6.48,6.48,0,0,0,4.46-1.62L22.58,20.4a4.09,4.09,0,0,1-6.07-2.13H14.28V20a6.72,6.72,0,0,0,6,3.7" style="fill:none;clip-path:url(#clip-path)"/></clipPath><clipPath id="clip-path-14"><path d="M16.51,18.27a4.07,4.07,0,0,1,0-2.58V14H14.28a6.69,6.69,0,0,0,0,6l2.23-1.73Z" style="fill:none;clip-path:url(#clip-path-2)"/></clipPath><clipPath id="clip-path-15"><path d="M20.29,12.92a3.64,3.64,0,0,1,2.58,1h0L24.79,12a6.5,6.5,0,0,0-4.5-1.75,6.74,6.74,0,0,0-6,3.7l2.23,1.73a4,4,0,0,1,3.78-2.77" style="fill:none;clip-path:url(#clip-path-2)"/></clipPath></defs><title>google_wallet_ES</title><path d="M5.62,0h225c3,0,5.51,1.89,5.51,4.22V31.67c0,2.33-2.47,4.22-5.51,4.22H5.62c-3,0-5.51-1.89-5.51-4.22V4.22C.11,1.89,2.58,0,5.62,0Z"/><g style="clip-path:url(#clip-path-8)"><rect x="58.56" y="5" width="11" height="26" style="fill:#3a3f41"/></g><g style="clip-path:url(#clip-path-9)"><rect x="26.32" y="6.2" width="17.65" height="21.69" style="fill:#fff"/></g><g style="clip-path:url(#clip-path-10)"><rect x="33.94" y="9.63" width="17.1" height="18.53" style="fill:#fff"/></g><g style="clip-path:url(#clip-path-11)"><rect x="41.28" y="9.89" width="18.01" height="21.53" style="fill:#fff"/></g><g style="clip-path:url(#clip-path-12)"><rect x="15.29" y="10.77" width="16.46" height="16.31" style="fill:#3e82f1"/></g><g style="clip-path:url(#clip-path-13)"><rect x="9.28" y="13.27" width="20.47" height="15.43" style="fill:#32a753"/></g><g style="clip-path:url(#clip-path-14)"><rect x="8.56" y="8.96" width="12.95" height="16.03" style="fill:#f8ba00"/></g><g style="clip-path:url(#clip-path-15)"><rect x="9.28" y="5.26" width="20.51" height="15.43" style="fill:#e73e34"/></g><path id="Guardarenelteléfonoo" d="M79.11,23.18a5.24,5.24,0,1,1,0-10.47,5.52,5.52,0,0,1,2.12.41,4.54,4.54,0,0,1,1.63,1.13l-1.09,1.09a3.5,3.5,0,0,0-1.17-.84,3.82,3.82,0,0,0-1.5-.29,3.66,3.66,0,0,0-1.81.46A3.47,3.47,0,0,0,76,16a4,4,0,0,0,0,3.92,3.37,3.37,0,0,0,1.34,1.31,3.71,3.71,0,0,0,1.82.47,3.66,3.66,0,0,0,1.5-.27,3.89,3.89,0,0,0,1.08-.71,2.74,2.74,0,0,0,.52-.77,3.37,3.37,0,0,0,.29-1H79.1v-1.4H84a4.28,4.28,0,0,1,.07.81,5.61,5.61,0,0,1-.29,1.83,3.93,3.93,0,0,1-.94,1.52A4.85,4.85,0,0,1,79.11,23.18Zm9.25,0a2.47,2.47,0,0,1-2-.77,3.21,3.21,0,0,1-.68-2.17V15.82h1.54V20a1.87,1.87,0,0,0,.41,1.31,1.44,1.44,0,0,0,1.09.43,1.63,1.63,0,0,0,1-.29,1.83,1.83,0,0,0,.64-.76,2.37,2.37,0,0,0,.22-1V15.82h1.54V23H90.66V22h-.09a2.15,2.15,0,0,1-.91.82A2.69,2.69,0,0,1,88.36,23.18Zm7.87,0a3,3,0,0,1-1.38-.3,2.19,2.19,0,0,1-.93-.85,2.32,2.32,0,0,1-.34-1.25A2.1,2.1,0,0,1,94.41,19a3.36,3.36,0,0,1,2.11-.65,4.84,4.84,0,0,1,1.13.12,4.17,4.17,0,0,1,.8.26V18.4A1.31,1.31,0,0,0,98,17.33a1.88,1.88,0,0,0-1.26-.42,2.29,2.29,0,0,0-1,.24,2,2,0,0,0-.77.66L93.82,17a3.14,3.14,0,0,1,1.23-1,3.83,3.83,0,0,1,1.68-.36,3.41,3.41,0,0,1,2.39.76,2.75,2.75,0,0,1,.84,2.15V23H98.45v-.85h-.07a2.35,2.35,0,0,1-.87.77A2.66,2.66,0,0,1,96.23,23.18Zm.26-1.27a1.93,1.93,0,0,0,1-.27,1.84,1.84,0,0,0,.7-.71,1.92,1.92,0,0,0,.25-1,3.26,3.26,0,0,0-.75-.29,3.68,3.68,0,0,0-.89-.11,1.93,1.93,0,0,0-1.27.34,1.12,1.12,0,0,0-.41.89,1,1,0,0,0,.38.81A1.48,1.48,0,0,0,96.49,21.91Zm5.3-6.09h1.47v1.05h.07a2,2,0,0,1,.83-.9,2.35,2.35,0,0,1,1.25-.36,2.38,2.38,0,0,1,.86.14v1.6a3.28,3.28,0,0,0-1.1-.23,1.71,1.71,0,0,0-1,.28,2.06,2.06,0,0,0-.65.75,2.23,2.23,0,0,0-.24,1V23h-1.54Zm8.44,7.36a3.21,3.21,0,0,1-1.75-.49,3.45,3.45,0,0,1-1.24-1.35,4.45,4.45,0,0,1,0-3.9,3.45,3.45,0,0,1,1.24-1.35,3.21,3.21,0,0,1,1.75-.49,2.77,2.77,0,0,1,1.36.33,2.54,2.54,0,0,1,.91.83h.07l-.07-1V12.94H114V23h-1.47V22h-.07a2.69,2.69,0,0,1-.91.81A2.77,2.77,0,0,1,110.23,23.18Zm.23-1.41a2,2,0,0,0,1-.29,2.26,2.26,0,0,0,.78-.84,2.68,2.68,0,0,0,.29-1.25,2.61,2.61,0,0,0-.29-1.24,2.16,2.16,0,0,0-.78-.83,2,2,0,0,0-2.09,0,2.11,2.11,0,0,0-.79.83,2.61,2.61,0,0,0-.29,1.24,2.68,2.68,0,0,0,.29,1.25,2.21,2.21,0,0,0,.79.84A2,2,0,0,0,110.46,21.77Zm7.69,1.41a3,3,0,0,1-1.37-.3,2.27,2.27,0,0,1-.94-.85,2.41,2.41,0,0,1-.33-1.25,2.08,2.08,0,0,1,.83-1.75,3.34,3.34,0,0,1,2.11-.65,4.9,4.9,0,0,1,1.13.12,4.42,4.42,0,0,1,.8.26V18.4a1.34,1.34,0,0,0-.49-1.07,1.88,1.88,0,0,0-1.26-.42,2.26,2.26,0,0,0-1,.24,2.09,2.09,0,0,0-.78.66L115.74,17A3.17,3.17,0,0,1,117,16a3.83,3.83,0,0,1,1.68-.36,3.43,3.43,0,0,1,2.39.76,2.75,2.75,0,0,1,.84,2.15V23h-1.51v-.85h-.07a2.52,2.52,0,0,1-.87.77A2.67,2.67,0,0,1,118.15,23.18Zm.27-1.27a1.93,1.93,0,0,0,1-.27,1.91,1.91,0,0,0,.7-.71,2,2,0,0,0,.25-1,3.66,3.66,0,0,0-.75-.29,3.74,3.74,0,0,0-.89-.11,1.93,1.93,0,0,0-1.27.34,1.09,1.09,0,0,0-.41.89,1,1,0,0,0,.38.81A1.48,1.48,0,0,0,118.42,21.91Zm5.3-6.09h1.47v1.05h.07a2,2,0,0,1,.83-.9,2.32,2.32,0,0,1,1.24-.36,2.4,2.4,0,0,1,.87.14v1.6a3.29,3.29,0,0,0-1.11-.23,1.68,1.68,0,0,0-.94.28,2,2,0,0,0-.65.75,2.23,2.23,0,0,0-.24,1V23h-1.54Zm12.49,7.36a3.61,3.61,0,0,1-1.88-.49,3.32,3.32,0,0,1-1.3-1.35,4,4,0,0,1-.47-1.94,4.05,4.05,0,0,1,.45-1.89,3.65,3.65,0,0,1,1.27-1.4,3.41,3.41,0,0,1,1.85-.51,3.63,3.63,0,0,1,1.87.47,3.07,3.07,0,0,1,1.2,1.3,4.11,4.11,0,0,1,.42,1.87,3.52,3.52,0,0,1-.05.49H134.1a2.17,2.17,0,0,0,.71,1.53,2.12,2.12,0,0,0,1.45.54,2.16,2.16,0,0,0,1.14-.3,2.25,2.25,0,0,0,.77-.82l1.31.61a3.92,3.92,0,0,1-1.32,1.39A3.58,3.58,0,0,1,136.21,23.18Zm1.84-4.63a1.83,1.83,0,0,0-.24-.75,1.66,1.66,0,0,0-.64-.62,2,2,0,0,0-1-.25,1.8,1.8,0,0,0-1.25.44,2.28,2.28,0,0,0-.71,1.18Zm3.12-2.73h1.47v.94h.07a2.3,2.3,0,0,1,.91-.83,2.7,2.7,0,0,1,1.3-.33,2.5,2.5,0,0,1,2,.76,3,3,0,0,1,.68,2.08V23H146V18.65a1.61,1.61,0,0,0-.42-1.23,1.72,1.72,0,0,0-2.06-.11,2,2,0,0,0-.63.76,2.38,2.38,0,0,0-.22,1V23h-1.54Zm15,7.36a3.59,3.59,0,0,1-1.88-.49,3.32,3.32,0,0,1-1.3-1.35,3.9,3.9,0,0,1-.47-1.94,4.05,4.05,0,0,1,.45-1.89,3.65,3.65,0,0,1,1.27-1.4,3.41,3.41,0,0,1,1.85-.51,3.63,3.63,0,0,1,1.87.47,3.2,3.2,0,0,1,1.2,1.3,4.11,4.11,0,0,1,.41,1.87,3.29,3.29,0,0,1,0,.49H154a2.11,2.11,0,0,0,2.15,2.07,2.11,2.11,0,0,0,1.14-.3,2.19,2.19,0,0,0,.78-.82l1.3.61a3.81,3.81,0,0,1-1.31,1.39A3.58,3.58,0,0,1,156.15,23.18ZM158,18.55a1.83,1.83,0,0,0-.24-.75,1.74,1.74,0,0,0-.64-.62,2,2,0,0,0-1-.25,1.83,1.83,0,0,0-1.26.44,2.27,2.27,0,0,0-.7,1.18Zm3.11-5.61h1.54V23H161.1ZM171,23.07a2.6,2.6,0,0,1-.89-.15,2,2,0,0,1-.69-.41,2.21,2.21,0,0,1-.6-1.64V17.18h-1.25V15.82h1.25v-2h1.54v2H172v1.36h-1.73v3.36a1.17,1.17,0,0,0,.22.81.84.84,0,0,0,.73.28,1.33,1.33,0,0,0,.42-.06,1.51,1.51,0,0,0,.39-.21v1.5A2.7,2.7,0,0,1,171,23.07Zm5.7.11a3.65,3.65,0,0,1-1.89-.49,3.38,3.38,0,0,1-1.3-1.35A4,4,0,0,1,173,19.4a3.94,3.94,0,0,1,.46-1.89,3.55,3.55,0,0,1,1.26-1.4,3.41,3.41,0,0,1,1.85-.51,3.63,3.63,0,0,1,1.87.47,3.07,3.07,0,0,1,1.2,1.3,4.11,4.11,0,0,1,.42,1.87c0,.13,0,.29,0,.49h-5.48a2.17,2.17,0,0,0,.71,1.53,2.14,2.14,0,0,0,1.45.54,2.11,2.11,0,0,0,1.14-.3,2.36,2.36,0,0,0,.78-.82l1.3.61a3.92,3.92,0,0,1-1.32,1.39A3.57,3.57,0,0,1,176.65,23.18Zm1.83-4.63a1.83,1.83,0,0,0-.24-.75,1.66,1.66,0,0,0-.64-.62,2,2,0,0,0-1-.25,1.82,1.82,0,0,0-1.25.44,2.28,2.28,0,0,0-.71,1.18Zm3.12-5.61h1.54V23H181.6Zm6.69,10.24a3.65,3.65,0,0,1-1.89-.49,3.38,3.38,0,0,1-1.3-1.35,4,4,0,0,1-.47-1.94,3.94,3.94,0,0,1,.46-1.89,3.55,3.55,0,0,1,1.26-1.4,3.41,3.41,0,0,1,1.85-.51,3.63,3.63,0,0,1,1.87.47,3.07,3.07,0,0,1,1.2,1.3,4.11,4.11,0,0,1,.42,1.87c0,.13,0,.29,0,.49h-5.48a2.17,2.17,0,0,0,.71,1.53,2.14,2.14,0,0,0,1.45.54,2.11,2.11,0,0,0,1.14-.3,2.36,2.36,0,0,0,.78-.82l1.3.61a3.92,3.92,0,0,1-1.32,1.39A3.57,3.57,0,0,1,188.29,23.18Zm1.83-4.63a1.83,1.83,0,0,0-.24-.75,1.66,1.66,0,0,0-.64-.62,2,2,0,0,0-1-.25,1.82,1.82,0,0,0-1.25.44,2.28,2.28,0,0,0-.71,1.18Zm-1.9-5.94H190l-1.12,1.84h-1.29Zm5.68,4.57h-1.31V15.82h1.31v-.56a2.31,2.31,0,0,1,.7-1.78,2.49,2.49,0,0,1,1.79-.66,3.53,3.53,0,0,1,1.09.16v1.51l-.47-.16a1.85,1.85,0,0,0-.5-.06,1.07,1.07,0,0,0-.77.29,1.09,1.09,0,0,0-.3.81v.45h1.79v1.36h-1.79V23H193.9Zm7.85,6a3.81,3.81,0,0,1-1.94-.49,3.5,3.5,0,0,1-1.33-1.37,4.2,4.2,0,0,1,0-3.86,3.57,3.57,0,0,1,1.33-1.37,3.81,3.81,0,0,1,1.94-.49,3.7,3.7,0,0,1,1.93.5A3.57,3.57,0,0,1,205,17.47a4.18,4.18,0,0,1,0,3.85,3.5,3.5,0,0,1-1.33,1.37A3.8,3.8,0,0,1,201.75,23.18Zm0-1.41a2.14,2.14,0,0,0,1.89-1.11,2.82,2.82,0,0,0,0-2.53A2.14,2.14,0,0,0,201.75,17a2.2,2.2,0,0,0-1.1.29,2.17,2.17,0,0,0-.8.82,2.82,2.82,0,0,0,0,2.53,2.14,2.14,0,0,0,1.9,1.11Zm5.16-5.95h1.47v.94h.07a2.3,2.3,0,0,1,.91-.83,2.7,2.7,0,0,1,1.3-.33,2.5,2.5,0,0,1,2,.76,3,3,0,0,1,.68,2.08V23h-1.54V18.65a1.64,1.64,0,0,0-.41-1.23,1.61,1.61,0,0,0-1.14-.4,1.58,1.58,0,0,0-.93.29,2,2,0,0,0-.63.76,2.38,2.38,0,0,0-.22,1V23h-1.54Zm11.64,7.36a3.77,3.77,0,0,1-1.93-.49,3.5,3.5,0,0,1-1.33-1.37,4.12,4.12,0,0,1,0-3.86,3.57,3.57,0,0,1,1.33-1.37,3.77,3.77,0,0,1,1.93-.49,3.68,3.68,0,0,1,1.93.5,3.5,3.5,0,0,1,1.33,1.37,4.1,4.1,0,0,1,0,3.85,3.44,3.44,0,0,1-1.33,1.37A3.77,3.77,0,0,1,218.55,23.18Zm0-1.41a2.17,2.17,0,0,0,1.9-1.11,2.82,2.82,0,0,0,0-2.53,2.13,2.13,0,0,0-.81-.82,2.17,2.17,0,0,0-1.09-.29,2.2,2.2,0,0,0-1.09.29,2.13,2.13,0,0,0-.81.82,2.82,2.82,0,0,0,0,2.53,2.06,2.06,0,0,0,.81.82A2.1,2.1,0,0,0,218.55,21.77Z" style="fill:#fff"/></svg>