<?xml version="1.0" encoding="UTF-8"?><svg id="Capa_1" xmlns="http://www.w3.org/2000/svg" xmlns:xlink="http://www.w3.org/1999/xlink" viewBox="0 0 181.02 36"><defs><clipPath id="clippath-3"><rect x="63.56" y="10" width="1" height="16" style="fill:none; stroke-width:0px;"/></clipPath><clipPath id="clippath-4"><rect x="-52.94" y="-3" width="288" height="44" style="fill:none; stroke-width:0px;"/></clipPath><clipPath id="clippath-5"><path d="m32.83,12.63v4.08h2.52c.6,0,1.1-.2,1.49-.6.4-.4.6-.88.6-1.44s-.2-1.02-.6-1.42c-.39-.41-.89-.62-1.49-.62h-2.52Zm0,5.52v4.74h-1.5v-11.69h3.99c1.01,0,1.87.34,2.58,1.01.72.67,1.08,1.5,1.08,2.47s-.36,1.82-1.08,2.48c-.7.66-1.56,1-2.58,1h-2.49Z" style="clip-path:url(#clippath-4); clip-rule:evenodd; fill:none; stroke-width:0px;"/></clipPath><clipPath id="clippath-6"><rect x="-52.94" y="-3" width="288" height="44" style="fill:none; stroke-width:0px;"/></clipPath><clipPath id="clippath-7"><path d="m40.5,20.44c0,.39.17.72.5.98.33.26.72.39,1.17.39.63,0,1.2-.23,1.69-.7.5-.47.74-1.02.74-1.65-.47-.37-1.12-.56-1.96-.56-.61,0-1.12.15-1.53.44-.41.29-.61.66-.61,1.09m1.95-5.81c1.11,0,1.99.3,2.63.89.64.59.96,1.41.96,2.44v4.93h-1.44v-1.11h-.07c-.62.91-1.45,1.37-2.49,1.37-.88,0-1.62-.26-2.22-.78-.59-.52-.89-1.18-.89-1.96,0-.83.31-1.49.94-1.98.63-.49,1.46-.74,2.51-.74.89,0,1.63.16,2.21.49v-.34c0-.52-.21-.97-.62-1.33-.41-.36-.9-.55-1.45-.55-.84,0-1.5.35-1.99,1.06l-1.32-.83c.73-1.05,1.81-1.57,3.24-1.57" style="clip-path:url(#clippath-6); clip-rule:evenodd; fill:none; stroke-width:0px;"/></clipPath><clipPath id="clippath-8"><rect x="-52.94" y="-3" width="288" height="44" style="fill:none; stroke-width:0px;"/></clipPath><clipPath id="clippath-9"><polygon points="54.29 14.89 49.27 26.42 47.72 26.42 49.59 22.38 46.28 14.89 47.92 14.89 50.31 20.64 50.34 20.64 52.66 14.89 54.29 14.89 54.29 14.89" style="clip-path:url(#clippath-8); clip-rule:evenodd; fill:none; stroke-width:0px;"/></clipPath><clipPath id="clippath-10"><rect x="-52.94" y="-3" width="288" height="44" style="fill:none; stroke-width:0px;"/></clipPath><clipPath id="clippath-11"><path d="m26.75,17.13c0-.47-.04-.93-.12-1.37h-6.34v2.59h3.63c-.16.84-.63,1.56-1.34,2.04v1.68h2.17c1.27-1.17,2-2.9,2-4.94" style="clip-path:url(#clippath-10); clip-rule:evenodd; fill:none; stroke-width:0px;"/></clipPath><clipPath id="clippath-12"><rect x="-52.94" y="-3" width="288" height="44" style="fill:none; stroke-width:0px;"/></clipPath><clipPath id="clippath-13"><path d="m20.29,23.7c1.82,0,3.34-.6,4.46-1.62l-2.17-1.68c-.6.41-1.38.64-2.29.64-1.75,0-3.24-1.18-3.78-2.77h-2.23v1.73c1.11,2.2,3.38,3.7,6.01,3.7" style="clip-path:url(#clippath-12); clip-rule:evenodd; fill:none; stroke-width:0px;"/></clipPath><clipPath id="clippath-14"><rect x="-52.94" y="-3" width="288" height="44" style="fill:none; stroke-width:0px;"/></clipPath><clipPath id="clippath-15"><path d="m16.51,18.27c-.14-.41-.21-.84-.21-1.29s.07-.88.21-1.29v-1.73h-2.23c-.46.91-.72,1.93-.72,3.02s.26,2.11.72,3.02l2.23-1.73h0Z" style="clip-path:url(#clippath-14); clip-rule:evenodd; fill:none; stroke-width:0px;"/></clipPath><clipPath id="clippath-16"><rect x="-52.94" y="-3" width="288" height="44" style="fill:none; stroke-width:0px;"/></clipPath><clipPath id="clippath-17"><path d="m20.29,12.92c.99,0,1.88.34,2.58,1.01h0s1.92-1.92,1.92-1.92c-1.17-1.08-2.69-1.75-4.5-1.75-2.63,0-4.9,1.51-6.01,3.7l2.23,1.73c.53-1.59,2.02-2.77,3.78-2.77" style="clip-path:url(#clippath-16); clip-rule:evenodd; fill:none; stroke-width:0px;"/></clipPath></defs><rect x=".11" width="180.91" height="35.89" rx="4.22" ry="4.22" style="stroke-width:0px;"/><g style="clip-path:url(#clippath-3);"><rect x="58.56" y="5" width="11" height="26" style="fill:#3a3f41; stroke-width:0px;"/></g><g style="clip-path:url(#clippath-5);"><rect x="26.32" y="6.2" width="17.65" height="21.69" style="fill:#fff; stroke-width:0px;"/></g><g style="clip-path:url(#clippath-7);"><rect x="33.94" y="9.63" width="17.1" height="18.53" style="fill:#fff; stroke-width:0px;"/></g><g style="clip-path:url(#clippath-9);"><rect x="41.28" y="9.89" width="18.01" height="21.53" style="fill:#fff; stroke-width:0px;"/></g><g style="clip-path:url(#clippath-11);"><rect x="15.29" y="10.77" width="16.46" height="16.31" style="fill:#3e82f1; stroke-width:0px;"/></g><g style="clip-path:url(#clippath-13);"><rect x="9.28" y="13.27" width="20.47" height="15.43" style="fill:#32a753; stroke-width:0px;"/></g><g style="clip-path:url(#clippath-15);"><rect x="8.56" y="8.96" width="12.95" height="16.03" style="fill:#f8ba00; stroke-width:0px;"/></g><g style="clip-path:url(#clippath-17);"><rect x="9.28" y="5.26" width="20.51" height="15.43" style="fill:#e73e34; stroke-width:0px;"/></g><path d="m77.11,23.22c.55,0,1.09-.11,1.6-.32.52-.21.95-.54,1.28-.99.34-.44.5-.99.5-1.65,0-.8-.24-1.44-.71-1.93-.47-.48-1.14-.87-1.99-1.17l-.63-.21c-.6-.21-1.04-.42-1.32-.64s-.42-.51-.42-.85c0-.36.16-.66.47-.9.31-.23.7-.35,1.15-.35s.83.12,1.12.36c.29.24.49.52.59.84l1.41-.6c-.18-.53-.53-1.01-1.05-1.43-.52-.42-1.22-.64-2.1-.64-.61,0-1.15.12-1.63.37-.48.25-.86.58-1.13,1-.27.42-.41.88-.41,1.37,0,.72.23,1.3.69,1.74.46.44,1.02.77,1.69,1.01l.63.22c.76.27,1.29.54,1.59.81.3.27.46.6.46,1.01,0,.45-.17.8-.52,1.06-.35.26-.77.39-1.26.39-.53,0-.99-.18-1.36-.53-.38-.35-.64-.8-.79-1.35l-1.48.6c.25.88.71,1.56,1.37,2.04.66.49,1.41.73,2.24.73h0Zm7.32,0c.49,0,.91-.1,1.29-.31.37-.21.66-.46.87-.77h.07v.85h1.51v-4.45c0-.92-.28-1.64-.84-2.15-.56-.51-1.36-.76-2.39-.76-.62,0-1.18.12-1.68.36-.5.24-.91.58-1.23,1.02l1.08.83c.2-.28.45-.5.78-.66.32-.16.66-.24,1.03-.24.51,0,.93.14,1.26.41.33.28.49.63.49,1.07v.36c-.2-.09-.46-.18-.8-.26-.34-.08-.71-.12-1.13-.12-.85,0-1.55.21-2.11.64-.56.43-.83,1.01-.83,1.75,0,.47.11.88.34,1.25.22.37.54.65.94.85.4.2.86.3,1.37.3h0Zm.27-1.27c-.4,0-.73-.11-.98-.32-.25-.21-.38-.48-.38-.81,0-.36.14-.66.41-.89.27-.23.7-.34,1.27-.34.31,0,.6.04.89.11.28.07.53.17.75.29,0,.35-.08.67-.25.97-.17.3-.4.54-.7.71-.3.18-.63.27-1.01.27h0Zm7.45,1.05h1.54l2.97-7.14h-1.68l-2.02,5.15h-.06l-1.97-5.15h-1.72l2.94,7.14h0Z" style="fill:#fff; stroke-width:0px;"/><path d="m100.7,23.22c.76,0,1.4-.17,1.95-.5.54-.34.98-.8,1.32-1.39l-1.3-.62c-.2.35-.46.62-.78.82-.32.2-.7.3-1.14.3-.55,0-1.03-.18-1.45-.54-.42-.36-.65-.87-.71-1.53h5.47c.03-.2.04-.36.04-.49,0-.69-.14-1.31-.41-1.86-.28-.55-.68-.98-1.2-1.3-.53-.32-1.15-.48-1.87-.48s-1.31.17-1.85.52c-.54.35-.96.81-1.27,1.39-.3.58-.46,1.22-.46,1.9,0,.72.16,1.37.47,1.94.31.57.75,1.02,1.3,1.35.56.33,1.18.49,1.88.49h0Zm-2.04-4.63c.13-.49.37-.89.71-1.18.34-.29.76-.44,1.25-.44.41,0,.76.08,1.04.25.28.17.5.38.64.62.14.25.22.5.24.75h-3.88Zm13.36,4.63c.44,0,.81-.07,1.12-.21v-1.5c-.14.09-.27.16-.39.2-.12.04-.26.06-.42.06-.35,0-.59-.1-.73-.29-.15-.16-.22-.44-.22-.83v-3.44h1.74v-1.36h-1.74v-2.02h-1.54v2.02h-1.25v1.36h1.25v3.77c0,.7.2,1.26.6,1.67.18.17.41.31.69.41.28.1.58.16.9.16h0Z" style="fill:#fff; stroke-width:0px;"/><path d="m117.78,23.22c.72,0,1.36-.17,1.93-.5.57-.33,1.01-.79,1.33-1.36.32-.58.48-1.22.48-1.93s-.16-1.34-.48-1.92c-.32-.58-.76-1.04-1.33-1.37-.57-.34-1.21-.5-1.93-.5s-1.36.17-1.93.5c-.57.33-1.01.79-1.33,1.36-.32.58-.48,1.22-.48,1.93s.16,1.35.48,1.93c.32.58.76,1.03,1.33,1.36.57.33,1.21.5,1.93.5h0Zm0-1.41c-.39,0-.76-.1-1.09-.29-.34-.19-.6-.47-.81-.83-.2-.36-.3-.78-.3-1.27s.1-.91.3-1.26c.2-.35.47-.63.81-.82.34-.19.7-.29,1.09-.29s.76.1,1.09.29c.34.19.6.46.8.82.2.35.3.77.3,1.26s-.1.91-.3,1.27c-.2.36-.47.63-.8.83-.34.19-.7.29-1.09.29h0Zm8.68,4.21h1.54v-2.95l-.07-.99h.07c.21.32.51.59.91.81.4.22.85.34,1.36.34.64,0,1.23-.16,1.75-.49.52-.33.94-.78,1.24-1.35.3-.57.46-1.23.46-1.95s-.15-1.38-.46-1.95c-.3-.57-.72-1.02-1.24-1.35-.52-.33-1.11-.49-1.75-.49-.5,0-.96.11-1.36.34-.4.22-.7.5-.91.83h-.07v-.94h-1.47v10.16h0Zm3.58-4.21c-.37,0-.72-.1-1.04-.29-.32-.2-.58-.48-.78-.84s-.29-.78-.29-1.25.1-.88.29-1.24c.2-.36.46-.64.78-.83.32-.2.67-.29,1.04-.29s.72.1,1.05.29c.33.2.59.47.78.83.2.36.29.77.29,1.24s-.1.88-.29,1.25-.46.64-.78.84c-.33.2-.68.29-1.05.29h0Zm5.22,1.19h1.54v-3.84c0-.36.08-.71.24-1.03.16-.32.38-.58.65-.78.28-.2.59-.29.93-.29.46,0,.83.14,1.11.41.28.27.43.68.43,1.22v4.31h1.54v-4.52c0-.88-.23-1.57-.69-2.08-.46-.51-1.12-.76-1.99-.76-.47,0-.9.11-1.31.33-.41.22-.71.5-.92.83h-.07l.07-1.09v-2.73h-1.54v10.02h0Zm11.69.22c.72,0,1.36-.17,1.93-.5.57-.33,1.01-.79,1.33-1.36.32-.58.48-1.22.48-1.93s-.16-1.34-.48-1.92c-.32-.58-.76-1.04-1.33-1.37-.57-.34-1.21-.5-1.93-.5s-1.36.17-1.93.5c-.57.33-1.01.79-1.33,1.36-.32.58-.48,1.22-.48,1.93s.16,1.35.48,1.93c.32.58.76,1.03,1.33,1.36.57.33,1.21.5,1.93.5h0Zm0-1.41c-.39,0-.76-.1-1.09-.29-.34-.19-.6-.47-.81-.83-.2-.36-.3-.78-.3-1.27s.1-.91.3-1.26c.2-.35.47-.63.81-.82.34-.19.7-.29,1.09-.29s.76.1,1.09.29c.34.19.6.46.8.82.2.35.3.77.3,1.26s-.1.91-.3,1.27c-.2.36-.47.63-.8.83-.34.19-.7.29-1.09.29h0Zm5.31,1.19h1.54v-3.86c0-.36.07-.7.22-1.02.15-.32.36-.57.63-.76.27-.19.58-.29.92-.29.49,0,.87.13,1.14.39.28.26.41.67.41,1.23v4.31h1.54v-4.52c0-.88-.23-1.57-.68-2.08-.45-.51-1.11-.76-1.98-.76-.46,0-.89.11-1.29.33-.41.22-.71.5-.92.83h-.07v-.94h-1.47v7.14h0Zm11.56.22c.76,0,1.4-.17,1.95-.5.54-.34.98-.8,1.32-1.39l-1.3-.62c-.2.35-.46.62-.78.82-.32.2-.7.3-1.14.3-.55,0-1.03-.18-1.45-.54-.42-.36-.65-.87-.71-1.53h5.47c.03-.2.04-.36.04-.49,0-.69-.14-1.31-.41-1.86-.28-.55-.68-.98-1.2-1.3-.53-.32-1.15-.48-1.87-.48s-1.31.17-1.85.52c-.54.35-.96.81-1.27,1.39-.3.58-.46,1.22-.46,1.9,0,.72.16,1.37.47,1.94.31.57.75,1.02,1.3,1.35.56.33,1.18.49,1.88.49h0Zm-2.04-4.63c.13-.49.37-.89.71-1.18.34-.29.76-.44,1.25-.44.41,0,.76.08,1.04.25.28.17.5.38.64.62.14.25.22.5.24.75h-3.88Z" style="fill:#fff; stroke-width:0px;"/></svg>