<svg id="Capa_1" data-name="Capa 1" xmlns="http://www.w3.org/2000/svg" viewBox="0 0 384 384"><title>icon
    -tier</title><path
        d="M384.75,187.5V198c-.16.18-.43.34-.47.55-2.53,12.13-9.46,20.65-20.79,25.69a4.39,4.39,0,0,0-2,3c-7,51.84-49,89.37-100.92,89.66q-67.85.38-135.7,0C73,316.66,30.84,279,24,227.3A5.14,5.14,0,0,0,21.33,224c-7.4-3.45-13.22-8.55-16.82-15.89C3,204.86,2,201.36.75,198V187.5c.16-.18.43-.35.47-.55,2.51-12.15,9.47-20.64,20.8-25.7a4.41,4.41,0,0,0,2-3.05C30.8,106.55,73,68.82,124.9,68.55q67.86-.35,135.71,0a101.51,101.51,0,0,1,100.66,88.56c.34,2.53,1.08,3.88,3.52,4.91A31.11,31.11,0,0,1,381,177.45,105.24,105.24,0,0,1,384.75,187.5Zm-338-28.76H338.6c0-.66,0-1.16-.1-1.64a78.9,78.9,0,0,0-77.69-66q-68-.35-136.09,0c-20.73.07-38.84,7.36-54,21.59C57.49,125.11,49.52,140.44,46.71,158.74Zm.2,68.11a8.47,8.47,0,0,0,0,1.08c5.25,37.49,38.93,66.37,78.06,66.53q67.86.27,135.71,0a78.9,78.9,0,0,0,74.94-54.34c1.41-4.28,2.24-8.76,3.36-13.24-13.76-1.31-19.16-.13-27.73,5.86a49.15,49.15,0,0,1-57.43-.91,27.15,27.15,0,0,0-31.84.05,49,49,0,0,1-58.33.12,27.09,27.09,0,0,0-32.42.17c-15.81,12-39.82,12.87-55.82,1.18C66.62,226.91,57.27,225.81,46.91,226.85Zm145.82-45.41q-78.55,0-157.1,0c-7.25,0-12.33,4.69-12.37,11.23s5,11.31,12.24,11.37c6.25,0,12.51.19,18.75,0a51,51,0,0,1,33.22,10.5c8.41,6.25,22.15,6.25,30.25-.35,14.55-11.85,41.49-14.47,59.63,0,8.66,6.89,22.36,6.45,31.19-.17a48.89,48.89,0,0,1,58.32-.37,27,27,0,0,0,32.43.06A48.4,48.4,0,0,1,329,204c7.37.09,14.75.11,22.12,0a11.26,11.26,0,0,0,2.38-22.23,23.88,23.88,0,0,0-5.22-.33Z"/></svg>
