<?xml version="1.0" encoding="UTF-8"?>
<svg id="Capa_1" data-name="Capa 1" xmlns="http://www.w3.org/2000/svg" viewBox="0 0 52 52">
  <defs>
  </defs>
  <path fill="#231f20"
        d="M11.26,35.88c-.42-.33-.62-.28-.8.19-.45,1.15-.94,2.29-1.45,3.41-.13.29-.44.49-.66.74-.05-.03-.09-.06-.14-.09.09-.68.17-1.35.28-2.03.11-.73.27-1.46.35-2.19.02-.15-.24-.36-.42-.48-.11-.08-.29-.04-.63-.08.29-.5.52-.9.74-1.3.31-.55.62-1.11.92-1.66.03-.06.05-.15.03-.2-.3-.75.19-1.2.54-1.77.67-1.07,1.63-1.65,2.78-1.99.05-.01.1-.03.15-.05.57-.36,1.14-.72,1.73-1.1-.85-.16-1.71-.32-2.58-.48-1.24-.22-2.48-.43-3.71-.66-1.79-.33-3.58-.68-5.37-1.03-.56-.11-1.12-.19-1.67-.33-.32-.08-.7-.11-.78-.56-.09-.48.32-.49.53-.65,0-1.39-.01-2.75,0-4.11.03-2.6.04-5.2.12-7.8.03-.91.19-1.4,1.43-1.41,4.66-.02,9.31,0,13.97,0,1.03,0,1.44.41,1.44,1.45,0,3.54,0,7.07,0,10.61,0,.65-.07,1.25-.72,1.79.55.09.97.16,1.4.22.53.08,1.06.15,1.59.21.19.02.4,0,.59-.04,1.15-.22,2.28-.54,3.44-.66.69-.07,1.46.02,1.88.81.15.28.45.49.7.7.69.59.89,1.34.57,2.15-.24.62-.56,1.27-1.02,1.71-1.09,1.03-1.17,2.23-.78,3.52.18.6.59,1.12.86,1.69.3.62.67,1.23.82,1.88.16.7.57.92,1.18.93,1.85.05,3.7.11,5.55.09.79,0,1.58-.17,2.35-.31.65-.12,1.17-.54,1.37-1.15.35-1.07.63-2.18.85-3.28.15-.76.24-1.55.21-2.32-.06-1.26-.25-2.51-.39-3.76-.11-.98-.19-1.96-.33-2.93-.2-1.4-.42-2.79-.66-4.18-.12-.66-.06-1.25.22-1.86.11-.24.09-.6,0-.86-.11-.3-.37-.53-.56-.8-.1-.14-.21-.29-.24-.45-.17-.84-.28-.94-1.15-.91-.24,0-.54,0-.7.13-.91.74-2.05.64-3.07.95-.52.16-.67-.06-.75-.46-.06-.29,0-.48.36-.62,1.22-.49,2.48-.71,3.77-.79.31-.02.62-.06.93-.11.62-.1.86-.79.66-1.61-.26-1.03-1.06-1.47-1.89-1.91-.29-.15-.59-.28-.89-.42-.7-.33-1.24-.04-1.77.4-.19.16-.47.22-.7.32-.09-.24-.25-.49-.24-.73.04-.97.11-1.94.21-2.9.02-.24.02-.56.42-.61.37-.05.57.11.65.42.13.48.21.97.32,1.45.14.6.48.97,1.07,1.22.82.36,1.62.78,2.36,1.28.64.43.84,1.16.87,1.91.03.63.47.94,1.08.84.97-.15,1.97-.29,2.52.86.06.12.28.19.44.21,1.46.17,1.6.25,1.89,1.7.13.63.12,1.3.1,1.95-.03.73-.56,1.07-1.21,1.23-1.18.29-1.34.57-.93,1.72.77,2.14,1.57,4.26,2.34,6.4.09.24.12.53.07.78-.14.63-.02.79.63.95.78.2,1.58.39,2.3.74,1.45.7,2.53,1.86,3.45,3.17.28.39.19.59-.27.7-.23.06-.48.03-.72.06-.17.02-.34.06-.5.09.62.68,1.26,1.26,1.77,1.94.69.93,1.05,2.01,1.13,3.18.11,1.64-.28,3.12-1.26,4.45-1.15,1.56-2.68,2.41-4.61,2.64-1.72.2-3.24-.25-4.62-1.24-1-.72-1.71-1.66-2.16-2.8-.07-.18-.13-.36-.2-.53-.31-.72-.8-.96-1.57-.9-.79.06-1.58,0-2.38.02-1.08.02-2.16.05-3.24.08-.1,0-.21.01-.31.01-1.71-.05-3.36.28-5.02.65-.56.12-1.18.11-1.76.03-.77-.11-1.31.06-1.62.77-.37.85-.74,1.68-1.48,2.29-1.16.95-2.45,1.6-3.99,1.63-1.06.02-2.1-.04-3.1-.5-1.25-.58-2.24-1.39-2.96-2.57-1.18-1.93-1.21-3.96-.49-6.03.13-.36.39-.68.6-1.04ZM42.87,36.15c-.65.84-1.2,1.61-1.81,2.33-.44.52-.71.97-.59,1.74.42,2.66,3.31,4.37,5.87,3.44,2.02-.73,3.22-2.65,2.92-4.84-.16-1.13-.72-2.08-1.64-2.83-.85-.69-1.85-.89-2.88-.99-.32-.03-.54.15-.42.52.12.37.28.74.38,1.12.14.54.43.87.99,1.06,1.04.35,1.48,2.02.83,2.9-.73,1-2.05,1-2.83.48-.85-.58-1.02-1.67-.48-2.68.15-.27.17-.66.12-.98-.06-.38-.26-.74-.46-1.27ZM16.58,37.75c-.86-.42-1.65-.8-2.43-1.19-.31-.16-.56-.11-.79.14-.81.95-1.17,2.03-1,3.28.37,2.66,2.54,4.32,5.29,3.87,1.49-.25,2.51-1.21,3.19-2.55.14-.28.04-.36-.22-.43-.3-.08-.68-.12-.85-.33-.69-.82-1.45-.55-2.24-.25-.13.05-.26.13-.39.14-.48.03-.99.17-1.33-.33-.34-.5-.32-.84.08-1.43.19-.28.41-.55.68-.92Z"/>
</svg>