<svg version="1.1" id="Layer_1" xmlns="http://www.w3.org/2000/svg" xmlns:xlink="http://www.w3.org/1999/xlink" x="0px" y="0px"
	 width="100%" viewBox="0 0 163 134" enable-background="new 0 0 163 134" xml:space="preserve">
<path fill="none" opacity="1.000000" stroke="none"
	d="
M1.425431,69.239899
	C1.000000,47.428562 1.056524,25.856785 0.927554,4.286116
	C0.911660,1.627743 1.306944,0.834888 4.188095,0.909909
	C13.474110,1.151703 22.770372,1.000000 32.531342,1.000000
	C34.237686,3.512040 32.100117,4.303915 30.648159,5.079104
	C19.183327,11.200094 14.775519,21.029327 15.337724,33.587551
	C15.478881,36.740646 15.181570,39.909313 15.514105,43.056923
	C15.794850,45.714317 17.165617,47.432278 20.009466,47.387657
	C22.808737,47.343731 24.218781,45.658085 24.491352,42.992798
	C24.813337,39.844318 24.619785,36.679737 24.647469,33.522392
	C24.770821,19.454021 32.178699,11.624051 46.253757,10.719104
	C47.913521,10.612391 49.577831,10.658249 51.240269,10.648089
	C59.869156,10.595356 60.585598,9.819837 59.778091,1.327100
	C74.354225,1.000000 88.708458,1.000000 103.531342,1.000000
	C104.721107,1.796523 104.819145,2.755151 104.826424,3.784123
	C104.869080,9.813269 105.552231,10.583966 111.697433,10.610268
	C117.388428,10.634626 123.006149,10.848860 128.329239,13.188155
	C135.493576,16.336603 138.906738,21.993290 139.312561,29.618231
	C139.524673,33.603821 139.084412,37.615704 139.570129,41.588089
	C139.930618,44.536320 140.834503,47.363899 144.512146,47.391605
	C148.243317,47.419712 149.224075,44.528126 149.414780,41.606194
	C150.406601,26.409628 148.349884,12.497389 132.936676,4.557734
	C131.762146,3.952716 130.520584,3.314797 130.787292,1.332814
	C140.790543,1.000000 150.586929,1.192153 160.368439,0.895012
	C163.758530,0.792029 164.076584,1.979463 164.061218,4.839326
	C163.947968,25.913279 164.000000,46.988121 164.000000,68.531342
	C160.672012,70.563896 157.503937,68.542496 154.217163,68.546844
	C106.398224,68.610199 58.579117,68.593307 10.760060,68.580124
	C7.737596,68.579292 4.882384,69.825790 1.425431,69.239899
z"/>
<path fill="#FFFFFF" opacity="1.000000" stroke="none"
	d="
M1.000000,69.449982
	C6.562817,66.253708 12.533934,67.009972 18.405344,67.008087
	C63.999443,66.993454 109.593582,67.021400 155.187576,66.952812
	C158.294250,66.948143 161.023697,67.450439 163.666138,69.295631
	C164.000000,71.370560 164.000000,73.741112 164.000000,76.555832
	C162.323318,79.359978 159.980484,80.467079 157.148758,80.310425
	C153.385925,80.102280 152.362183,81.977730 152.321426,85.455246
	C152.230240,93.234985 152.947952,101.034721 151.610565,108.794571
	C149.301315,122.193405 142.040146,131.062103 128.317505,134.744293
	C120.979050,135.000000 113.958107,135.000000 106.468582,135.000000
	C102.803131,133.102020 101.134079,130.426498 102.166801,126.662506
	C103.307510,122.504944 106.688583,121.680557 110.390099,121.618088
	C114.720589,121.544983 119.038284,121.522675 123.317604,120.649437
	C131.422211,118.995613 136.192993,113.663498 136.488373,105.405914
	C136.726425,98.750000 136.472488,92.082718 136.580978,85.423195
	C136.639938,81.804268 135.120163,80.174133 131.505203,80.431900
	C130.346252,80.514534 129.174652,80.428116 128.008972,80.440018
	C121.994102,80.501427 121.899178,80.589027 121.369133,86.439392
	C120.337860,97.822067 113.439102,104.329597 102.080521,104.411285
	C88.924370,104.505905 75.766960,104.482605 62.610497,104.419724
	C50.942486,104.363945 43.912395,97.645432 43.645748,85.982018
	C43.554482,81.989891 42.353027,80.294357 38.158855,80.376884
	C26.468138,80.606911 27.487572,79.483841 27.441029,90.720413
	C27.424475,94.717270 27.366360,98.715645 27.463268,102.711021
	C27.721254,113.347504 32.943844,119.276680 43.495728,121.092659
	C47.303181,121.747925 51.138893,121.463341 54.960781,121.620750
	C58.373455,121.761299 61.269924,122.904991 62.591476,126.244675
	C63.957634,129.697113 62.522003,132.386429 59.311321,134.710358
	C51.645748,135.000000 44.291500,135.000000 36.468624,135.000000
	C27.552197,131.944138 20.105814,127.710136 16.000063,119.100838
	C13.889571,114.675377 12.585838,110.161575 12.609955,105.246971
	C12.640847,98.951485 12.466904,92.650597 12.667446,86.361565
	C12.795738,82.338295 11.762698,79.968315 7.192808,80.267822
	C5.218492,80.397217 3.222572,79.945389 1.314434,78.266533
	C1.000000,75.299988 1.000000,72.599968 1.000000,69.449982
z"/>
<path fill="none" opacity="1.000000" stroke="none"
	d="
M59.468658,135.000000
	C57.765446,133.429291 59.540131,132.947098 60.180393,132.433792
	C62.189751,130.822876 62.685703,128.599869 61.746239,126.675049
	C60.705429,124.542587 58.981716,122.876686 55.934769,122.904602
	C51.037220,122.949471 46.168957,123.202843 41.208019,122.141220
	C32.668404,120.313766 26.255901,113.799194 26.039854,105.103439
	C25.849670,97.448677 26.147547,89.781136 25.924213,82.128166
	C25.840403,79.256195 26.996149,78.865852 29.382406,78.959778
	C33.206230,79.110283 37.066887,79.280243 40.862511,78.920349
	C44.577202,78.568130 45.463062,80.051285 45.022923,83.375404
	C43.906780,91.804932 47.170105,97.982368 54.727215,101.950531
	C56.563625,102.914818 58.425838,103.022537 60.408852,103.017853
	C74.562187,102.984406 88.723648,102.709686 102.866310,103.099754
	C112.661224,103.369911 119.896988,95.452118 119.997246,85.979813
	C120.071121,79.000160 120.059761,79.000038 127.014397,79.000000
	C138.000000,78.999939 138.196533,79.004715 137.929260,90.004944
	C137.757828,97.061295 139.213547,104.216576 137.002548,111.176147
	C135.138565,117.043457 129.481949,121.099998 123.481796,122.126350
	C119.214546,122.856270 115.004875,122.967064 110.745079,122.989456
	C107.819107,123.004845 104.725945,122.648247 103.386810,126.165230
	C102.002182,129.801666 103.745102,132.313309 106.291656,134.675400
	C90.645775,135.000000 75.291542,135.000000 59.468658,135.000000
z"/>
<path fill="none" opacity="1.000000" stroke="none"
	d="
M128.468658,135.000000
	C127.226105,132.970963 128.739899,133.320770 129.916977,132.942673
	C144.678116,128.201187 150.362106,116.484489 150.947983,103.090309
	C151.245316,96.292908 151.198853,89.463417 150.913284,82.665009
	C150.777374,79.429062 151.872192,78.680466 154.821976,78.948860
	C157.917084,79.230484 161.188492,79.563782 163.664246,76.704948
	C164.000000,95.247581 163.928757,113.495750 164.077332,131.742126
	C164.099442,134.458511 163.604034,135.142899 160.785904,135.085999
	C150.173462,134.871674 139.554092,135.000000 128.468658,135.000000
z"/>
<path fill="none" opacity="1.000000" stroke="none"
	d="
M1.000000,78.468658
	C4.726399,78.627045 8.435113,79.296318 12.259509,79.034554
	C14.888054,78.854630 13.948050,81.009422 13.961367,82.253548
	C14.039701,89.571724 14.162360,96.895554 13.964452,104.209213
	C13.608884,117.349113 21.196999,128.308060 34.227501,132.917313
	C35.207447,133.263931 36.046562,133.461136 36.293259,134.680695
	C25.384314,135.000000 14.765347,134.854645 4.155063,135.094040
	C1.208379,135.160538 0.912685,134.276047 0.931903,131.683502
	C1.062231,114.102234 1.000000,96.519547 1.000000,78.468658
z"/>
<path fill="#FFFFFF" opacity="1.000000" stroke="none"
	d="
M130.531342,1.000000
	C129.980453,2.279222 131.087860,2.609583 131.927826,2.957751
	C142.689133,7.418326 148.812607,15.153360 150.130142,26.989473
	C150.820801,33.194218 151.664276,39.232944 150.032639,45.383945
	C149.242676,48.361961 147.354645,49.068535 144.544342,49.060814
	C141.773010,49.053200 139.923859,48.417843 138.943573,45.484074
	C137.212845,40.304375 138.124924,35.037224 138.060501,29.823923
	C137.946960,20.633465 131.537811,14.539431 123.174057,12.894456
	C119.086197,12.090458 115.062851,12.017977 110.981499,12.004971
	C103.011749,11.979572 101.233063,9.098722 104.311172,1.328679
	C112.687561,1.000000 121.375122,1.000000 130.531342,1.000000
z"/>
<path fill="#FFFFFF" opacity="1.000000" stroke="none"
	d="
M59.531345,1.000000
	C58.844395,2.231853 60.260723,2.751324 60.797977,3.244033
	C62.606068,4.902215 62.533562,7.110895 61.570019,8.687867
	C60.560318,10.340382 59.192917,12.051392 56.521244,12.084374
	C51.455635,12.146914 46.429493,11.981504 41.297764,12.795362
	C33.271042,14.068345 26.319035,21.546135 26.024099,30.296103
	C25.884008,34.452255 25.934175,38.618374 26.018307,42.777546
	C26.103882,47.008224 24.184208,49.048069 19.905375,49.022625
	C15.882483,48.998703 13.813540,47.081913 14.027425,43.089699
	C14.396420,36.202255 13.028382,29.248634 14.977891,22.416866
	C17.200630,14.627601 21.323439,8.426583 28.741652,4.637062
	C30.409239,3.785191 32.509960,3.471728 33.289856,1.305766
	C41.687565,1.000000 50.375126,1.000000 59.531345,1.000000
z"/>
<path fill="#FFFFFF" opacity="1.000000" stroke="none"
	d="
M83.999901,28.000000
	C89.828606,28.000000 95.157349,27.999281 100.486099,28.000145
	C112.668121,28.002125 120.058601,35.225681 119.982948,47.224468
	C119.911446,58.564842 121.566658,56.939548 110.239548,56.980015
	C90.256996,57.051403 70.272926,56.890823 50.292088,57.089119
	C46.134068,57.130383 44.399811,55.979076 44.976635,51.744354
	C45.608818,47.103214 44.080265,42.396484 46.575703,37.732803
	C50.100327,31.145708 55.480007,28.260439 62.519478,28.046503
	C69.506981,27.834146 76.505989,28.000010 83.999901,28.000000
z"/>
</svg>
