<svg version="1.1" id="Layer_1" xmlns="http://www.w3.org/2000/svg" xmlns:xlink="http://www.w3.org/1999/xlink" x="0px" y="0px"
	 width="100%" viewBox="0 0 180 167" enable-background="new 0 0 180 167" xml:space="preserve">
<path fill="#000000" opacity="1.000000" stroke="none"
	d="
M47.885483,125.042160
	C47.303841,124.579056 46.722195,124.115959 46.041958,123.015335
	C44.924129,121.265900 43.904896,120.153992 42.885666,119.042084
	C34.886074,109.930191 30.402170,99.019333 28.144567,87.389290
	C25.257156,72.514816 25.813215,57.509449 33.180954,43.942715
	C42.019051,27.668510 55.205372,15.765676 73.539116,11.117047
	C93.270523,6.114031 112.121071,8.514437 128.773911,21.021994
	C144.905029,33.137688 154.489288,48.862244 155.115082,69.660683
	C155.471634,81.511124 153.436630,92.704613 148.733643,103.446709
	C147.765945,105.657013 145.704315,107.388382 143.706177,109.764755
	C143.214600,111.140419 143.163788,112.091835 143.112976,113.043243
	C142.446243,114.155937 141.779495,115.268631 140.613007,116.712898
	C138.762299,119.061096 137.411346,121.077721 136.060394,123.094345
	C136.060394,123.094345 136.024872,123.021866 135.706329,123.091461
	C134.278732,124.805557 133.169662,126.450066 132.060593,128.094574
	C132.060593,128.094574 132.021347,128.021164 131.690796,128.042984
	C125.026703,131.596466 119.563713,135.956360 117.042229,143.114700
	C117.030563,143.465088 116.875793,143.732727 115.964897,143.987885
	C113.920723,145.404327 112.489586,146.750488 111.058441,148.096634
	C111.058441,148.096634 111.022018,148.024078 110.677597,148.046204
	C108.902794,149.416962 107.472420,150.765594 106.042046,152.114227
	C102.367348,154.570358 98.922073,157.518784 94.962669,159.363983
	C89.415718,161.949036 84.803749,158.507614 80.099487,155.058411
	C78.246910,153.259216 76.566429,152.150818 74.885948,151.042435
	C73.657532,150.268326 72.429108,149.494217 71.070503,148.039581
	C70.526512,143.669876 67.783463,143.247742 64.885803,143.042480
	C64.535454,143.030853 64.267761,142.876160 64.014023,141.977875
	C62.159443,136.576431 59.112614,133.134399 53.885242,132.042252
	C53.303658,131.579193 52.722076,131.116150 52.053886,129.988159
	C52.116322,126.456848 50.892555,124.899353 47.885483,125.042160
M108.343483,136.952682
	C114.763191,130.268311 121.836189,124.088211 127.466415,116.794418
	C139.131180,101.683090 147.009048,85.093567 144.041824,65.059349
	C140.977722,44.371048 126.603653,28.103308 107.880447,22.293945
	C90.484756,16.896479 73.562859,19.127453 58.412720,30.816519
	C40.658825,44.514515 34.719223,64.708786 38.316113,83.562302
	C41.495007,100.224869 50.575481,113.902046 62.339931,125.590889
	C70.451469,133.650284 79.653099,140.628906 88.573814,147.835236
	C89.601990,148.665817 92.405983,148.517120 93.614082,147.691711
	C98.451042,144.386993 102.983292,140.636322 108.343483,136.952682
z"/>
<path fill="#000000" opacity="1.000000" stroke="none"
	d="
M117.390839,143.060608
	C119.563713,135.956360 125.026703,131.596466 131.727509,128.062622
	C127.309654,133.042465 122.524544,138.024506 117.390839,143.060608
z"/>
<path fill="#000000" opacity="1.000000" stroke="none"
	d="
M53.939262,132.390884
	C59.112614,133.134399 62.159443,136.576431 63.951588,141.746124
	C60.636330,138.989777 57.314804,135.864655 53.939262,132.390884
z"/>
<path fill="#000000" opacity="1.000000" stroke="none"
	d="
M65.018967,143.353912
	C67.783463,143.247742 70.526512,143.669876 70.949112,147.736877
	C69.022652,146.631592 67.087395,145.148468 65.018967,143.353912
z"/>
<path fill="#000000" opacity="1.000000" stroke="none"
	d="
M136.372131,122.963036
	C137.411346,121.077721 138.762299,119.061096 140.473022,117.021866
	C139.449814,118.943420 138.066833,120.887573 136.372131,122.963036
z"/>
<path fill="#000000" opacity="1.000000" stroke="none"
	d="
M47.939186,125.381561
	C50.892555,124.899353 52.116322,126.456848 51.962456,129.718781
	C50.636055,128.649857 49.314472,127.185410 47.939186,125.381561
z"/>
<path fill="#000000" opacity="1.000000" stroke="none"
	d="
M106.380623,152.060654
	C107.472420,150.765594 108.902794,149.416962 110.713928,148.064301
	C109.636192,149.375870 108.177696,150.691467 106.380623,152.060654
z"/>
<path fill="#000000" opacity="1.000000" stroke="none"
	d="
M111.397858,148.050781
	C112.489586,146.750488 113.920723,145.404327 115.733139,144.050293
	C114.655365,145.363251 113.196320,146.684082 111.397858,148.050781
z"/>
<path fill="#000000" opacity="1.000000" stroke="none"
	d="
M75.017975,151.352631
	C76.566429,152.150818 78.246910,153.259216 79.942589,154.740784
	C78.355186,153.963562 76.752586,152.813187 75.017975,151.352631
z"/>
<path fill="#000000" opacity="1.000000" stroke="none"
	d="
M132.370743,127.964607
	C133.169662,126.450066 134.278732,124.805557 135.742493,123.109375
	C134.958420,124.650017 133.819656,126.242332 132.370743,127.964607
z"/>
<path fill="#000000" opacity="1.000000" stroke="none"
	d="
M42.939194,119.376442
	C43.904896,120.153992 44.924129,121.265900 45.950546,122.745911
	C44.969395,121.979614 43.981056,120.845207 42.939194,119.376442
z"/>
<path fill="#000000" opacity="1.000000" stroke="none"
	d="
M143.426636,112.890259
	C143.163788,112.091835 143.214600,111.140419 143.549408,110.094482
	C143.802338,110.912392 143.771301,111.824829 143.426636,112.890259
z"/>
<path style="fill: none !important;" opacity="1.000000" stroke="none"
	d="
M107.985863,137.001648
	C102.983292,140.636322 98.451042,144.386993 93.614082,147.691711
	C92.405983,148.517120 89.601990,148.665817 88.573814,147.835236
	C79.653099,140.628906 70.451469,133.650284 62.339931,125.590889
	C50.575481,113.902046 41.495007,100.224869 38.316113,83.562302
	C34.719223,64.708786 40.658825,44.514515 58.412720,30.816519
	C73.562859,19.127453 90.484756,16.896479 107.880447,22.293945
	C126.603653,28.103308 140.977722,44.371048 144.041824,65.059349
	C147.009048,85.093567 139.131180,101.683090 127.466415,116.794418
	C121.836189,124.088211 114.763191,130.268311 107.985863,137.001648
M69.388191,63.104038
	C60.677326,81.925026 74.715706,100.838417 94.582230,98.047386
	C108.971230,96.025879 117.993011,83.457664 114.589615,68.317345
	C112.357597,58.388042 105.372543,51.891808 95.265846,50.141666
	C85.312592,48.418102 74.408768,52.692383 69.388191,63.104038
z"/>
<path fill="#000000" opacity="1.000000" stroke="none"
	d="
M69.652794,62.816437
	C74.408768,52.692383 85.312592,48.418102 95.265846,50.141666
	C105.372543,51.891808 112.357597,58.388042 114.589615,68.317345
	C117.993011,83.457664 108.971230,96.025879 94.582230,98.047386
	C74.715706,100.838417 60.677326,81.925026 69.652794,62.816437
M79.901543,66.641235
	C75.417992,72.675766 77.766182,83.370354 86.027824,86.640900
	C90.751671,88.510918 98.057579,87.183472 100.960838,83.250153
	C105.259789,77.425957 105.248238,70.644691 101.630951,65.996262
	C96.434685,59.318764 85.156296,59.096252 79.901543,66.641235
z"/>
<path style="fill: none!important;" opacity="1.000000" stroke="none"
	d="
M80.152756,66.354156
	C85.156296,59.096252 96.434685,59.318764 101.630951,65.996262
	C105.248238,70.644691 105.259789,77.425957 100.960838,83.250153
	C98.057579,87.183472 90.751671,88.510918 86.027824,86.640900
	C77.766182,83.370354 75.417992,72.675766 80.152756,66.354156
z"/>
</svg>
