<svg version="1.1" id="Layer_1" xmlns="http://www.w3.org/2000/svg" xmlns:xlink="http://www.w3.org/1999/xlink" x="0px" y="0px"
     width="100%" viewBox="0 0 180 167" enable-background="new 0 0 180 167" xml:space="preserve">
    <path fill="#000000" opacity="1.000000" stroke="none"
          d="
M135.451294,16.181496
	C149.506577,22.250721 159.405090,31.612968 163.072067,46.527275
	C163.918518,49.969887 164.879929,53.505192 164.914047,57.006367
	C165.095795,75.653564 165.349854,94.311752 164.908951,112.950294
	C164.384781,135.107895 146.644516,154.272491 126.326035,154.917419
	C104.102966,155.622803 81.851173,156.150986 59.627098,155.798386
	C48.086647,155.615295 37.101135,152.127533 29.195404,142.637711
	C27.758694,140.913132 26.934439,138.653931 25.414934,137.026749
	C16.588940,127.575287 15.891548,115.906906 15.975990,103.925674
	C16.078081,89.440140 16.074192,74.952850 15.977978,60.467236
	C15.893186,47.701172 19.751787,36.201771 28.613543,27.176237
	C36.512196,19.131609 46.619156,14.238336 58.154179,14.082676
	C79.629883,13.792872 101.113274,13.893161 122.591049,14.091651
	C126.756264,14.130145 130.910492,15.357808 135.451294,16.181496
M104.499863,144.000153
	C110.332191,144.000137 116.180084,144.275055 121.993759,143.945724
	C136.287827,143.135941 149.821548,133.758835 151.621094,119.806122
	C153.377075,106.191132 152.002899,92.172432 152.002899,77.713074
	C111.099564,77.713074 69.741554,77.713074 28.008924,77.713074
	C28.008924,90.264137 28.001467,103.237152 28.031845,116.210083
	C28.033302,116.832199 28.394878,117.447289 28.544760,118.076141
	C32.328678,133.951889 45.938587,144.352356 62.507694,144.050903
	C76.167557,143.802383 89.835541,144.000153 104.499863,144.000153
M114.482651,25.999813
	C95.820717,25.999790 77.158119,25.907448 58.497147,26.040972
	C49.919487,26.102350 42.522717,29.862385 36.857418,35.871696
	C27.940897,45.329659 26.676346,57.159866 28.233822,68.272591
	C49.100002,68.180550 69.654953,68.054123 90.210083,68.009232
	C110.993027,67.963844 131.776154,67.999222 153.000443,67.999222
	C153.000443,63.801102 153.138885,60.006592 152.973495,56.225365
	C152.542648,46.375092 148.036331,38.826439 140.366852,32.634968
	C132.908249,26.613743 124.462219,25.604710 114.482651,25.999813
z"/>
    <path style="fill: none !important;" opacity="1.000000" stroke="none"
          d="
M103.999893,144.000153
	C89.835541,144.000153 76.167557,143.802383 62.507694,144.050903
	C45.938587,144.352356 32.328678,133.951889 28.544760,118.076141
	C28.394878,117.447289 28.033302,116.832199 28.031845,116.210083
	C28.001467,103.237152 28.008924,90.264137 28.008924,77.713074
	C69.741554,77.713074 111.099564,77.713074 152.002899,77.713074
	C152.002899,92.172432 153.377075,106.191132 151.621094,119.806122
	C149.821548,133.758835 136.287827,143.135941 121.993759,143.945724
	C116.180084,144.275055 110.332191,144.000137 103.999893,144.000153
M131.440262,104.000008
	C133.770309,103.999466 136.100494,104.013695 138.430389,103.995056
	C142.278992,103.964256 144.194366,101.950134 143.961731,98.166504
	C143.756729,94.832207 142.382080,92.866081 138.424240,92.926125
	C125.445457,93.123016 112.460007,93.121544 99.481117,92.927910
	C95.461464,92.867943 94.131302,94.982300 94.068443,98.260963
	C94.002388,101.706810 95.131920,104.160614 99.500908,104.069084
	C109.815224,103.852989 120.137146,103.999901 131.440262,104.000008
z"/>
    <path style="fill: none !important;" opacity="1.000000" stroke="none"
          d="
M114.978363,25.999813
	C124.462219,25.604710 132.908249,26.613743 140.366852,32.634968
	C148.036331,38.826439 152.542648,46.375092 152.973495,56.225365
	C153.138885,60.006592 153.000443,63.801102 153.000443,67.999222
	C131.776154,67.999222 110.993027,67.963844 90.210083,68.009232
	C69.654953,68.054123 49.100002,68.180550 28.233822,68.272591
	C26.676346,57.159866 27.940897,45.329659 36.857418,35.871696
	C42.522717,29.862385 49.919487,26.102350 58.497147,26.040972
	C77.158119,25.907448 95.820717,25.999790 114.978363,25.999813
z"/>
    <path fill="#000000" opacity="1.000000" stroke="none"
          d="
M130.948120,104.000008
	C120.137146,103.999901 109.815224,103.852989 99.500908,104.069084
	C95.131920,104.160614 94.002388,101.706810 94.068443,98.260963
	C94.131302,94.982300 95.461464,92.867943 99.481117,92.927910
	C112.460007,93.121544 125.445457,93.123016 138.424240,92.926125
	C142.382080,92.866081 143.756729,94.832207 143.961731,98.166504
	C144.194366,101.950134 142.278992,103.964256 138.430389,103.995056
	C136.100494,104.013695 133.770309,103.999466 130.948120,104.000008
z"/>
</svg>
