<?xml version="1.0" standalone="no"?>
<!DOCTYPE svg PUBLIC "-//W3C//DTD SVG 20010904//EN"
 "http://www.w3.org/TR/2001/REC-SVG-20010904/DTD/svg10.dtd">
<svg version="1.0" xmlns="http://www.w3.org/2000/svg"
 width="150.000000pt" height="150.000000pt" viewBox="0 0 150.000000 150.000000"
 preserveAspectRatio="xMidYMid meet">

<g transform="translate(0.000000,150.000000) scale(0.100000,-0.100000)"
fill="#000000" stroke="none">
<path d="M590 1129 c-100 -110 -193 -213 -207 -230 l-25 -29 50 0 51 0 142
154 142 155 28 -15 c15 -7 42 -14 59 -14 20 0 45 -11 70 -31 36 -29 41 -31 70
-19 16 7 30 16 30 20 0 3 -35 38 -77 76 -43 38 -94 84 -114 101 l-36 33 -183
-201z"/>
<path d="M845 1014 l-350 -143 103 -1 102 0 210 84 210 84 34 -34 c19 -19 41
-34 49 -34 9 0 22 -20 33 -50 17 -48 19 -50 56 -50 21 0 38 2 38 5 0 21 -115
285 -124 284 -6 -1 -168 -66 -361 -145z"/>
<path d="M60 500 l0 -330 690 0 690 0 0 330 0 330 -690 0 -690 0 0 -330z
m1260 206 c6 -18 20 -42 30 -51 18 -16 20 -31 20 -164 l-1 -146 -32 -20 c-18
-11 -36 -30 -42 -43 l-10 -22 -530 0 -531 0 -9 32 c-8 25 -18 35 -42 42 l-33
9 0 146 0 146 29 16 c17 10 35 32 42 53 l13 36 542 0 542 0 12 -34z"/>
<path d="M705 655 c-160 -56 -122 -308 46 -308 21 0 52 9 71 19 38 22 78 93
78 139 0 44 -40 117 -75 136 -46 25 -76 29 -120 14z"/>
<path d="M313 560 c-48 -19 -39 -101 12 -114 41 -10 75 16 75 58 0 48 -41 74
-87 56z"/>
<path d="M1130 557 c-37 -18 -41 -80 -7 -102 30 -19 73 -11 87 15 31 59 -22
116 -80 87z"/>
</g>
</svg>
