<svg version="1.1" id="Layer_1" xmlns="http://www.w3.org/2000/svg" xmlns:xlink="http://www.w3.org/1999/xlink" x="0px" y="0px"
     width="100%" viewBox="0 0 180 167" enable-background="new 0 0 180 167" xml:space="preserve">
  <path fill="#000000" opacity="1.000000" stroke="none"
        d="
M80.909035,15.306427
	C81.029991,14.367827 81.173256,13.779073 81.601028,13.073927
	C82.743660,12.367834 83.801483,12.117452 84.764336,11.131133
	C90.723213,7.385393 96.760925,8.392948 100.470863,14.055482
	C106.261482,22.893757 110.952133,32.452606 114.773720,42.203854
	C118.277420,51.143974 124.424400,53.420303 132.903488,54.124008
	C142.622208,54.930592 152.289124,56.522930 161.923523,58.108181
	C166.062805,58.789257 168.747757,61.912453 169.842209,65.806587
	C170.983444,69.867172 171.046570,73.861885 167.353409,77.232056
	C157.679886,86.059586 149.364059,96.300758 139.072342,104.502846
	C137.019531,106.138840 137.774887,108.654419 138.112778,110.581490
	C140.239655,122.711090 142.767593,134.770584 144.874283,146.903381
	C145.578720,150.960373 144.136200,154.962982 140.882111,157.429108
	C137.108673,160.288818 132.552139,161.302216 127.979637,158.983780
	C116.700729,153.264969 105.424026,147.536972 94.265678,141.589020
	C91.814850,140.282608 90.091042,140.346420 87.674843,141.635345
	C76.663788,147.509216 65.540955,153.175629 54.412853,158.827103
	C49.189545,161.479767 44.086174,160.335876 39.979435,155.476990
	C39.500061,152.889084 39.027630,150.677277 37.949036,148.292633
	C38.292583,137.808594 41.042969,128.020233 42.494453,118.031914
	C42.938450,114.976608 43.446201,111.928535 44.014523,108.893959
	C44.506310,106.268059 43.336723,104.421021 41.406803,102.907700
	C31.170586,94.881081 22.635647,85.075706 13.566195,75.860786
	C8.945525,71.166000 10.686560,60.034073 20.224623,58.127991
	C29.312563,56.311863 38.546661,55.135986 47.764374,54.107792
	C51.175186,53.727329 54.504402,52.885090 58.013405,52.825203
	C62.905334,52.741711 63.807690,47.960831 66.011452,44.330490
	C67.670326,43.116127 68.438843,41.677376 69.150513,40.161816
	C73.002960,31.957628 77.752708,24.184874 80.909035,15.306427
z"/>
  <path fill="#000000" opacity="1.000000" stroke="none"
        d="
M80.567619,15.115412
	C82.098389,16.058151 81.830353,17.291096 81.200340,18.551229
	C77.297707,26.357111 73.394630,34.162769 69.488159,41.966736
	C68.943306,43.055180 68.159729,43.842705 66.515793,43.972309
	C70.860626,34.425282 75.554573,24.849762 80.567619,15.115412
z"/>
  <path fill="#000000" opacity="1.000000" stroke="none"
        d="
M37.561096,148.126251
	C40.214439,149.568130 41.487900,151.560028 40.093582,154.785645
	C37.242950,153.555237 37.441341,150.844818 37.561096,148.126251
z"/>
  <path fill="#000000" opacity="1.000000" stroke="none"
        d="
M84.629875,10.938745
	C84.739250,12.227890 83.932724,12.891154 82.237686,12.946108
	C82.421555,11.971128 83.028069,11.071396 84.629875,10.938745
z"/>
  <path style="fill: #FFFFFF !important;" opacity="1.000000" stroke="none"
        d="
M84.724136,31.685883
	C86.780090,27.587904 88.614128,23.802090 90.423347,20.067513
	C92.455811,20.060623 92.412628,21.837633 92.909126,22.815418
	C97.755898,32.360523 103.012993,41.753353 107.037437,51.643585
	C110.791939,60.870407 117.702072,63.293705 126.559242,64.098694
	C136.775772,65.027229 146.936646,66.621590 157.093140,68.120232
	C159.650360,68.497559 160.071915,69.831223 157.823578,71.722794
	C148.548615,79.526024 140.444626,88.568764 131.552719,96.764626
	C126.692696,101.244217 126.354881,106.241112 127.467567,112.004250
	C129.708908,123.613289 131.203476,135.356277 133.867294,146.895889
	C134.511169,149.685135 132.564423,149.289429 130.823120,148.355804
	C123.687317,144.529861 116.553032,140.700882 109.398819,136.909576
	C104.532013,134.330444 99.832405,131.255707 94.695305,129.414749
	C88.958572,127.358917 83.972198,130.940796 79.094742,133.467819
	C69.893669,138.234894 60.775028,143.161850 51.653561,148.080643
	C50.614624,148.640915 49.561703,149.514099 48.524097,148.733963
	C47.121857,147.679657 48.895260,146.745193 49.026218,145.696381
	C50.434521,134.417618 52.727131,123.292480 54.791058,112.122490
	C55.834442,106.475685 55.306782,101.076675 50.167141,96.405022
	C40.732151,87.829132 32.091824,78.379913 22.130907,70.114037
	C24.923456,66.394669 29.013205,67.927391 32.150356,67.293060
	C42.190262,65.263000 52.465282,64.416641 62.628384,62.965191
	C67.040726,62.335045 70.503792,60.128155 72.557770,55.961712
	C76.504166,47.956532 80.516960,39.984077 84.724136,31.685883
z"/>
</svg>
