<svg width="150" height="150" viewBox="0 0 150 150" fill="none" xmlns="http://www.w3.org/2000/svg">
  <g clip-path="url(#clip0_3848_336)">
    <path
      d="M135.372 150H42.3651C40.5015 150 38.9922 148.491 38.9922 146.627C38.9922 144.764 40.5015 143.254 42.3651 143.254H132.003V6.74574H42.3651C40.5015 6.74574 38.9922 5.23638 38.9922 3.37287C38.9922 1.50936 40.5015 0 42.3651 0H135.376C137.24 0 138.749 1.50936 138.749 3.37287V146.627C138.749 148.491 137.24 150 135.376 150H135.372Z"
      fill="#535353"/>
    <path
      d="M91.7979 79.1188H15.3729C13.5094 79.1188 12 77.6094 12 75.7459C12 73.8824 13.5094 72.373 15.3729 72.373H91.7979C93.6614 72.373 95.1708 73.8824 95.1708 75.7459C95.1708 77.6094 93.6614 79.1188 91.7979 79.1188Z"
      fill="#535353"/>
    <path
      d="M75.3572 95.558C74.4929 95.558 73.6329 95.2291 72.9709 94.5714C71.6555 93.256 71.6555 91.1184 72.9709 89.803L89.4095 73.3645C90.7249 72.0491 92.8624 72.0491 94.1779 73.3645C95.4933 74.6799 95.4933 76.8175 94.1779 78.1329L77.7393 94.5714C77.0816 95.2291 76.2173 95.558 75.353 95.558H75.3572Z"
      fill="#535353"/>
    <path
      d="M91.7958 77.627C90.9315 77.627 90.0714 77.2982 89.4095 76.6404L72.9709 60.2061C71.6555 58.8907 71.6555 56.7532 72.9709 55.4377C74.2864 54.1223 76.4239 54.1223 77.7393 55.4377L94.1779 71.872C95.4933 73.1875 95.4933 75.325 94.1779 76.6404C93.5202 77.2982 92.6559 77.627 91.7916 77.627H91.7958Z"
      fill="#535353"/>
  </g>
  <defs>
    <clipPath id="clip0_3848_336">
      <rect width="126.744" height="150" fill="white" transform="translate(12)"/>
    </clipPath>
  </defs>
</svg>
