<svg width="150" height="150" viewBox="0 0 150 150" fill="none" xmlns="http://www.w3.org/2000/svg">
  <path
    d="M123.287 12.4932V90.2408C123.676 90.3675 124.047 90.5576 124.409 90.8383C125.269 90.793 126.084 91.0918 126.763 91.5897V12.4932C126.763 6.10172 121.567 0.905273 115.166 0.905273H21.5123C15.1118 0.905273 9.90625 6.10172 9.90625 12.4932V59.216C9.90625 60.1756 10.6848 60.9542 11.6444 60.9542H29.6238V120.949C29.6238 121.908 30.4024 122.687 31.362 122.687H78.5284C78.2206 121.528 78.1119 120.324 78.2568 119.211H33.1092V12.4932C33.1092 12.1039 33.0911 11.7056 33.0458 11.3253C33.0368 11.2076 33.0096 11.09 32.9915 10.9723C32.9553 10.7097 32.9282 10.4472 32.8738 10.1846C32.8467 10.0489 32.8014 9.92211 32.7743 9.77726C32.7109 9.54188 32.6656 9.3065 32.5932 9.08018C32.5479 8.93533 32.4846 8.79953 32.4302 8.64563C32.3578 8.43741 32.2854 8.22014 32.2039 8.02097C32.1405 7.86707 32.0681 7.73127 31.9957 7.57737C31.9052 7.38726 31.8237 7.19714 31.7241 7.00703C31.6426 6.86218 31.5521 6.71733 31.4616 6.57248C31.362 6.39142 31.2624 6.22847 31.1538 6.05646C31.0451 5.91161 30.9455 5.76676 30.8369 5.63097C30.7192 5.47706 30.6106 5.31411 30.4929 5.16926C30.3752 5.02441 30.2485 4.88862 30.1217 4.75282C30.0131 4.63513 29.9044 4.49933 29.7958 4.38164H115.184C119.665 4.38164 123.305 8.02097 123.305 12.4932H123.287ZM29.6328 57.4868H13.3917V12.4932C13.3917 8.02097 17.031 4.38164 21.5123 4.38164C25.9935 4.38164 29.6328 8.02097 29.6328 12.4932V57.4778V57.4868Z"
    fill="#535353"/>
  <path
    d="M79.7043 123.601H31.3701C29.9125 123.601 28.7266 122.415 28.7266 120.958V61.8685H11.6435C10.1859 61.8685 9 60.6826 9 59.2251V12.4932C9 5.60384 14.6129 0 21.5113 0H115.174C122.073 0 127.676 5.60384 127.676 12.4932V93.3641L126.237 92.314C125.848 92.0333 125.214 91.6984 124.454 91.7346L124.119 91.7527L123.856 91.5445C123.603 91.3453 123.331 91.2004 123.014 91.1008L122.389 90.8926V12.4932C122.389 8.51892 119.148 5.28698 115.174 5.28698H31.7051C31.7594 5.35941 31.8227 5.44088 31.8771 5.53141C32.0219 5.74869 32.1305 5.9388 32.2392 6.12892C32.3116 6.24661 32.4112 6.40051 32.5017 6.56346C32.6013 6.76263 32.6828 6.92558 32.7643 7.09759L32.8729 7.33297C32.9272 7.44161 32.9815 7.55024 33.0268 7.65888C33.1083 7.83994 33.1716 8.021 33.226 8.20206L33.3256 8.48271C33.3618 8.58229 33.407 8.69093 33.4342 8.79051C33.4885 8.98063 33.5338 9.15263 33.579 9.3337L33.6786 9.74108C33.6967 9.82256 33.7239 9.90404 33.742 9.98551C33.7963 10.2662 33.8325 10.5287 33.8687 10.7912L33.8868 10.9089C33.9049 11.0176 33.9231 11.1171 33.9321 11.2258C33.9774 11.6694 33.9955 12.0949 33.9955 12.4932V118.305H79.2788L79.143 119.328C79.0163 120.297 79.0978 121.383 79.3875 122.452L79.6953 123.592L79.7043 123.601ZM21.5113 1.81061C15.6087 1.81061 10.8106 6.60873 10.8106 12.4932V59.216C10.8106 59.6777 11.1818 60.0489 11.6435 60.0489H30.5282V120.949C30.5282 121.41 30.8993 121.782 31.361 121.782H77.4139C77.3234 121.22 77.2872 120.659 77.2962 120.116H32.203V12.4932C32.203 12.1311 32.1849 11.769 32.1487 11.4068C32.1487 11.3435 32.1305 11.271 32.1124 11.1986L32.0853 11.0176C32.0581 10.7912 32.031 10.574 31.9857 10.3476L31.8318 9.75014C31.7956 9.60529 31.7594 9.46949 31.7232 9.32464C31.7051 9.26127 31.6779 9.18885 31.6417 9.10737L31.524 8.77241C31.4787 8.63661 31.4244 8.49176 31.3701 8.35597C31.3339 8.28354 31.2977 8.19301 31.2524 8.11153L31.1257 7.83994C31.0623 7.69509 30.9899 7.55024 30.9174 7.4054C30.8631 7.30581 30.7726 7.17002 30.6911 7.04327C30.5734 6.84411 30.4829 6.6902 30.3833 6.5363C30.3109 6.43672 30.2113 6.30998 30.1208 6.18323L30.0031 6.01123C29.9307 5.91164 29.8673 5.82111 29.7949 5.73058C29.7134 5.62194 29.6229 5.53141 29.5414 5.44088L29.2879 5.16024C29.2426 5.10592 29.1883 5.0516 29.143 4.99728L27.6221 3.45827H115.174C120.153 3.45827 124.2 7.50498 124.2 12.4751V89.6161C124.372 89.7067 124.544 89.7972 124.707 89.9058C125.096 89.9149 125.486 89.9783 125.875 90.105V12.4932C125.875 6.59967 121.077 1.81061 115.183 1.81061H21.5113ZM30.5372 58.3922H12.4764V12.4932C12.4764 7.52309 16.5231 3.47637 21.5023 3.47637C26.4814 3.47637 30.5282 7.52309 30.5282 12.4932V58.3831L30.5372 58.3922ZM14.296 56.5816H28.7266V12.4932C28.7266 8.51892 25.4856 5.28698 21.5113 5.28698C17.537 5.28698 14.296 8.51892 14.296 12.4932V56.5725V56.5816Z"
    fill="#535353"/>
  <path
    d="M70.8962 20.2332H45.6835C44.7239 20.2332 43.9453 19.4637 43.9453 18.495C43.9453 17.5263 44.7239 16.7568 45.6835 16.7568H70.8962C71.8559 16.7568 72.6344 17.5445 72.6344 18.495C72.6344 19.4456 71.8559 20.2332 70.8962 20.2332Z"
    fill="#535353"/>
  <path
    d="M70.8953 21.1385H45.6826C44.225 21.1385 43.0391 19.9526 43.0391 18.4951C43.0391 17.0375 44.225 15.8516 45.6826 15.8516H70.8953C72.3528 15.8516 73.5388 17.0375 73.5388 18.4951C73.5388 19.9526 72.3528 21.1385 70.8953 21.1385ZM45.6826 17.6622C45.2208 17.6622 44.8497 18.0333 44.8497 18.4951C44.8497 18.9568 45.2118 19.3279 45.6826 19.3279H70.8953C71.3661 19.3279 71.7282 18.9658 71.7282 18.4951C71.7282 18.0243 71.357 17.6622 70.8953 17.6622H45.6826Z"
    fill="#535353"/>
  <path
    d="M95.2399 30.6629H45.6835C44.7239 30.6629 43.9453 29.8934 43.9453 28.9247C43.9453 27.956 44.7239 27.1865 45.6835 27.1865H95.2399C96.1995 27.1865 96.9781 27.9741 96.9781 28.9247C96.9781 29.8753 96.1995 30.6629 95.2399 30.6629Z"
    fill="#535353"/>
  <path
    d="M95.239 31.5682H45.6826C44.225 31.5682 43.0391 30.3823 43.0391 28.9247C43.0391 27.4672 44.225 26.2812 45.6826 26.2812H95.239C96.6965 26.2812 97.8824 27.4672 97.8824 28.9247C97.8824 30.3823 96.6965 31.5682 95.239 31.5682ZM45.6826 28.0919C45.2208 28.0919 44.8497 28.463 44.8497 28.9247C44.8497 29.3864 45.2118 29.7576 45.6826 29.7576H95.239C95.7097 29.7576 96.0718 29.3955 96.0718 28.9247C96.0718 28.454 95.7007 28.0919 95.239 28.0919H45.6826Z"
    fill="#535353"/>
  <path
    d="M95.2399 41.1014H45.6835C44.7239 41.1014 43.9453 40.3228 43.9453 39.3632C43.9453 38.4036 44.7239 37.625 45.6835 37.625H95.2399C96.1995 37.625 96.9781 38.4036 96.9781 39.3632C96.9781 40.3228 96.1995 41.1014 95.2399 41.1014Z"
    fill="#535353"/>
  <path
    d="M95.239 42.0067H45.6826C44.225 42.0067 43.0391 40.8208 43.0391 39.3632C43.0391 37.9057 44.225 36.7197 45.6826 36.7197H95.239C96.6965 36.7197 97.8824 37.9057 97.8824 39.3632C97.8824 40.8208 96.6965 42.0067 95.239 42.0067ZM45.6826 38.5303C45.2208 38.5303 44.8497 38.9015 44.8497 39.3632C44.8497 39.8249 45.2208 40.1961 45.6826 40.1961H95.239C95.7007 40.1961 96.0718 39.8249 96.0718 39.3632C96.0718 38.9015 95.7007 38.5303 95.239 38.5303H45.6826Z"
    fill="#535353"/>
  <path
    d="M95.2399 41.1014H45.6835C44.7239 41.1014 43.9453 40.3228 43.9453 39.3632C43.9453 38.4036 44.7239 37.625 45.6835 37.625H95.2399C96.1995 37.625 96.9781 38.4036 96.9781 39.3632C96.9781 40.3228 96.1995 41.1014 95.2399 41.1014Z"
    fill="#535353"/>
  <path
    d="M95.239 42.0067H45.6826C44.225 42.0067 43.0391 40.8208 43.0391 39.3632C43.0391 37.9057 44.225 36.7197 45.6826 36.7197H95.239C96.6965 36.7197 97.8824 37.9057 97.8824 39.3632C97.8824 40.8208 96.6965 42.0067 95.239 42.0067ZM45.6826 38.5303C45.2208 38.5303 44.8497 38.9015 44.8497 39.3632C44.8497 39.8249 45.2208 40.1961 45.6826 40.1961H95.239C95.7007 40.1961 96.0718 39.8249 96.0718 39.3632C96.0718 38.9015 95.7007 38.5303 95.239 38.5303H45.6826Z"
    fill="#535353"/>
  <path
    d="M60.4581 56.7527H45.6835C44.7239 56.7527 43.9453 55.9742 43.9453 55.0146C43.9453 54.0549 44.7239 53.2764 45.6835 53.2764H60.4581C61.4177 53.2764 62.1963 54.0549 62.1963 55.0146C62.1963 55.9742 61.4177 56.7527 60.4581 56.7527Z"
    fill="#535353"/>
  <path
    d="M60.4571 57.6581H45.6826C44.225 57.6581 43.0391 56.4721 43.0391 55.0146C43.0391 53.557 44.225 52.3711 45.6826 52.3711H60.4571C61.9147 52.3711 63.1006 53.557 63.1006 55.0146C63.1006 56.4721 61.9147 57.6581 60.4571 57.6581ZM45.6826 54.1817C45.2208 54.1817 44.8497 54.5529 44.8497 55.0146C44.8497 55.4763 45.2208 55.8475 45.6826 55.8475H60.4571C60.9188 55.8475 61.29 55.4763 61.29 55.0146C61.29 54.5529 60.9188 54.1817 60.4571 54.1817H45.6826Z"
    fill="#535353"/>
  <path
    d="M60.4581 67.1912H45.6835C44.7239 67.1912 43.9453 66.4127 43.9453 65.453C43.9453 64.4934 44.7239 63.7148 45.6835 63.7148H60.4581C61.4177 63.7148 62.1963 64.4934 62.1963 65.453C62.1963 66.4127 61.4177 67.1912 60.4581 67.1912Z"
    fill="#535353"/>
  <path
    d="M60.4571 68.0966H45.6826C44.225 68.0966 43.0391 66.9106 43.0391 65.4531C43.0391 63.9955 44.225 62.8096 45.6826 62.8096H60.4571C61.9147 62.8096 63.1006 63.9955 63.1006 65.4531C63.1006 66.9106 61.9147 68.0966 60.4571 68.0966ZM45.6826 64.6202C45.2208 64.6202 44.8497 64.9914 44.8497 65.4531C44.8497 65.9148 45.2208 66.2859 45.6826 66.2859H60.4571C60.9188 66.2859 61.29 65.9148 61.29 65.4531C61.29 64.9914 60.9188 64.6202 60.4571 64.6202H45.6826Z"
    fill="#535353"/>
  <path
    d="M60.4581 88.0594H45.6835C44.7239 88.0594 43.9453 87.2808 43.9453 86.3212C43.9453 85.3616 44.7239 84.583 45.6835 84.583H60.4581C61.4177 84.583 62.1963 85.3616 62.1963 86.3212C62.1963 87.2808 61.4177 88.0594 60.4581 88.0594Z"
    fill="#535353"/>
  <path
    d="M60.4571 88.9647H45.6826C44.225 88.9647 43.0391 87.7788 43.0391 86.3212C43.0391 84.8637 44.225 83.6777 45.6826 83.6777H60.4571C61.9147 83.6777 63.1006 84.8637 63.1006 86.3212C63.1006 87.7788 61.9147 88.9647 60.4571 88.9647ZM45.6826 85.4883C45.2208 85.4883 44.8497 85.8595 44.8497 86.3212C44.8497 86.7829 45.2208 87.1541 45.6826 87.1541H60.4571C60.9188 87.1541 61.29 86.7829 61.29 86.3212C61.29 85.8595 60.9188 85.4883 60.4571 85.4883H45.6826Z"
    fill="#535353"/>
  <path
    d="M104.367 56.7527H73.496C72.5364 56.7527 71.7578 55.9742 71.7578 55.0146C71.7578 54.0549 72.5364 53.2764 73.496 53.2764H104.367C105.327 53.2764 106.105 54.0549 106.105 55.0146C106.105 55.9742 105.327 56.7527 104.367 56.7527Z"
    fill="#535353"/>
  <path
    d="M104.382 57.6581H73.5107C72.0531 57.6581 70.8672 56.4721 70.8672 55.0146C70.8672 53.557 72.0531 52.3711 73.5107 52.3711H104.382C105.839 52.3711 107.025 53.557 107.025 55.0146C107.025 56.4721 105.839 57.6581 104.382 57.6581ZM73.5107 54.1817C73.049 54.1817 72.6778 54.5529 72.6778 55.0146C72.6778 55.4763 73.058 55.8475 73.5107 55.8475H104.382C104.843 55.8475 105.214 55.4763 105.214 55.0146C105.214 54.5529 104.843 54.1817 104.382 54.1817H73.5107Z"
    fill="#535353"/>
  <path
    d="M104.367 67.1912H73.496C72.5364 67.1912 71.7578 66.4127 71.7578 65.453C71.7578 64.4934 72.5364 63.7148 73.496 63.7148H104.367C105.327 63.7148 106.105 64.4934 106.105 65.453C106.105 66.4127 105.327 67.1912 104.367 67.1912Z"
    fill="#535353"/>
  <path
    d="M104.382 68.0966H73.5107C72.0531 68.0966 70.8672 66.9106 70.8672 65.4531C70.8672 63.9955 72.0531 62.8096 73.5107 62.8096H104.382C105.839 62.8096 107.025 63.9955 107.025 65.4531C107.025 66.9106 105.839 68.0966 104.382 68.0966ZM73.5107 64.6202C73.049 64.6202 72.6778 64.9914 72.6778 65.4531C72.6778 65.9148 73.058 66.2859 73.5107 66.2859H104.382C104.843 66.2859 105.214 65.9148 105.214 65.4531C105.214 64.9914 104.843 64.6202 104.382 64.6202H73.5107Z"
    fill="#535353"/>
  <path
    d="M104.367 77.6209H73.496C72.5364 77.6209 71.7578 76.8514 71.7578 75.8827C71.7578 74.914 72.5364 74.1445 73.496 74.1445H104.367C105.327 74.1445 106.105 74.9321 106.105 75.8827C106.105 76.8333 105.327 77.6209 104.367 77.6209Z"
    fill="#535353"/>
  <path
    d="M104.382 78.5262H73.5107C72.0531 78.5262 70.8672 77.3403 70.8672 75.8827C70.8672 74.4252 72.0531 73.2393 73.5107 73.2393H104.382C105.839 73.2393 107.025 74.4252 107.025 75.8827C107.025 77.3403 105.839 78.5262 104.382 78.5262ZM73.5107 75.0499C73.049 75.0499 72.6778 75.421 72.6778 75.8827C72.6778 76.3445 73.058 76.7156 73.5107 76.7156H104.382C104.843 76.7156 105.214 76.3445 105.214 75.8827C105.214 75.421 104.843 75.0499 104.382 75.0499H73.5107Z"
    fill="#535353"/>
  <path
    d="M109.005 149.548C91.0976 149.548 76.5312 134.99 76.5312 117.074C76.5312 99.1584 91.0976 84.583 109.005 84.583C126.911 84.583 141.496 99.1584 141.496 117.074C141.496 134.99 126.921 149.548 109.005 149.548ZM109.005 89.7161C93.9222 89.7161 81.6553 101.992 81.6553 117.083C81.6553 132.175 93.9222 144.433 109.005 144.433C124.087 144.433 136.372 132.166 136.372 117.083C136.372 102.001 124.096 89.7161 109.005 89.7161Z"
    fill="#535353"/>
  <path
    d="M109.012 150C90.8515 150 76.0859 135.234 76.0859 117.074C76.0859 98.9135 90.8605 84.1299 109.012 84.1299C127.163 84.1299 141.956 98.9045 141.956 117.074C141.956 135.243 127.181 150 109.012 150ZM109.012 85.0442C91.3584 85.0442 76.9912 99.4205 76.9912 117.083C76.9912 134.745 91.3584 149.104 109.012 149.104C126.665 149.104 141.051 134.736 141.051 117.083C141.051 99.4295 126.674 85.0442 109.012 85.0442ZM109.012 144.876C93.6851 144.876 81.21 132.41 81.21 117.074C81.21 101.738 93.6851 89.2539 109.012 89.2539C124.339 89.2539 136.832 101.729 136.832 117.074C136.832 132.419 124.348 144.876 109.012 144.876ZM109.012 90.1592C94.183 90.1592 82.1153 102.236 82.1153 117.074C82.1153 131.912 94.183 143.971 109.012 143.971C123.841 143.971 135.927 131.903 135.927 117.074C135.927 102.245 123.85 90.1592 109.012 90.1592Z"
    fill="#535353"/>
  <path
    d="M97.2266 125.448C97.2266 130.662 101.183 135.026 106.452 136.112V138.439C106.452 139.86 107.601 141.01 109.014 141.01C110.426 141.01 111.576 139.86 111.576 138.439V136.112C116.845 135.017 120.801 130.662 120.801 125.448C120.801 120.722 118.302 115.743 111.576 114.72V103.313C113.984 104.191 115.677 106.273 115.677 108.691C115.677 110.103 116.826 111.234 118.239 111.234C119.651 111.234 120.801 110.094 120.801 108.691C120.801 103.467 116.845 99.1124 111.576 98.0261V95.6904C111.576 94.2781 110.435 93.1465 109.014 93.1465C107.592 93.1465 106.452 94.2872 106.452 95.6904V98.0261C101.192 99.1215 97.2266 103.467 97.2266 108.691C97.2266 113.407 99.7252 118.395 106.452 119.409V130.816C104.044 129.938 102.351 127.865 102.351 125.448C102.351 124.026 101.21 122.895 99.7886 122.895C98.3672 122.895 97.2266 124.036 97.2266 125.448ZM106.452 103.322V114.213C103.754 113.552 102.351 111.714 102.351 108.7C102.351 106.282 104.044 104.2 106.452 103.322ZM111.576 130.816V119.934C114.292 120.595 115.677 122.433 115.677 125.448C115.677 127.865 113.975 129.938 111.576 130.816Z"
    fill="#535353"/>
  <path
    d="M109.005 141.453C107.34 141.453 105.991 140.095 105.991 138.43V136.465C100.622 135.189 96.7656 130.608 96.7656 125.429C96.7656 123.773 98.1145 122.424 99.7803 122.424C101.446 122.424 102.795 123.773 102.795 125.429C102.795 127.394 104.026 129.177 105.991 130.119V119.78C99.2009 118.585 96.7656 113.298 96.7656 108.681C96.7656 103.512 100.622 98.9221 105.991 97.6547V95.6811C105.991 94.0244 107.34 92.6846 109.005 92.6846C110.671 92.6846 112.02 94.0335 112.02 95.6811V97.6547C117.388 98.9312 121.245 103.512 121.245 108.681C121.245 110.338 119.896 111.678 118.23 111.678C116.565 111.678 115.216 110.329 115.216 108.681C115.216 106.717 113.985 104.924 112.02 103.983V114.321C118.81 115.525 121.245 120.821 121.245 125.429C121.245 130.599 117.388 135.189 112.02 136.465V138.43C112.02 140.095 110.671 141.453 109.005 141.453ZM99.7803 123.338C98.6124 123.338 97.6709 124.28 97.6709 125.439C97.6709 130.3 101.401 134.6 106.534 135.659L106.896 135.732V138.421C106.896 139.588 107.838 140.539 109.005 140.539C110.173 140.539 111.115 139.588 111.115 138.421V135.732L111.477 135.659C116.61 134.591 120.34 130.291 120.34 125.439C120.34 123.338 119.706 116.404 111.495 115.163L111.115 115.109V102.67L111.721 102.896C114.392 103.874 116.121 106.146 116.121 108.699C116.121 109.858 117.072 110.791 118.23 110.791C119.389 110.791 120.34 109.849 120.34 108.699C120.34 103.766 116.691 99.5558 111.477 98.4785L111.115 98.4061V95.7083C111.115 94.5495 110.173 93.617 109.005 93.617C107.838 93.617 106.896 94.5586 106.896 95.7083V98.4061L106.534 98.4785C101.401 99.5468 97.6709 103.847 97.6709 108.699C97.6709 110.8 98.3046 117.734 106.507 118.966L106.896 119.02V131.459L106.289 131.232C103.619 130.255 101.899 127.982 101.899 125.439C101.899 124.28 100.957 123.338 99.7893 123.338H99.7803ZM111.115 131.459V119.355L111.676 119.491C114.627 120.206 116.121 122.216 116.121 125.448C116.121 127.991 114.392 130.264 111.721 131.242L111.115 131.468V131.459ZM112.02 120.532V130.137C113.985 129.196 115.216 127.412 115.216 125.448C115.216 122.867 114.166 121.247 112.02 120.532ZM106.896 114.792L106.335 114.656C103.429 113.941 101.89 111.886 101.89 108.699C101.89 106.146 103.619 103.874 106.28 102.896L106.887 102.67V114.783L106.896 114.792ZM105.991 104.001C104.035 104.942 102.795 106.726 102.795 108.699C102.795 111.28 103.845 112.891 105.991 113.615V104.001Z"
    fill="#535353"/>
</svg>
