<?xml version="1.0" encoding="UTF-8"?><svg id="Layer_1" xmlns="http://www.w3.org/2000/svg" viewBox="0 0 1470.88 520.51"><defs><style>.cls-1{fill:#7b7d80;}.cls-1,.cls-2,.cls-3,.cls-4{stroke-width:0px;}.cls-2{fill:#6cd5c6;}.cls-3{fill:#b61375;}.cls-4{fill:#ff7596;}</style></defs><path class="cls-1" d="m648.52,17.31v68.02h-18.77V17.31h-25.96V0h70.7v17.31h-25.96Z"/><path class="cls-1" d="m748.36,85.33v-34.25h-34.62v34.25h-18.77V0h18.77v33.77h34.62V0h18.77v85.33h-18.77Z"/><path class="cls-1" d="m793.71,85.33V0h64.24v16.7h-45.71v17.31h40.23v16.7h-40.23v17.92h46.32v16.7h-64.85Z"/><path class="cls-1" d="m302.45,231.61v-55.71l-24.01,36.45h-.49l-23.77-36.08v55.34h-18.53v-85.33h20.24l22.43,36.08,22.43-36.08h20.24v85.33h-18.53Z"/><path class="cls-1" d="m411.06,231.61l-7.8-19.14h-36.08l-7.8,19.14h-19.14l36.57-85.94h17.31l36.57,85.94h-19.63Zm-25.84-63.39l-11.34,27.67h22.67l-11.34-27.67Z"/><path class="cls-1" d="m518.09,224.18c-2.36,1.87-4.94,3.47-7.74,4.81s-5.87,2.36-9.2,3.05c-3.33.69-7.07,1.04-11.22,1.04-6.26,0-12.07-1.14-17.43-3.41-5.36-2.28-10-5.38-13.9-9.33-3.9-3.94-6.95-8.6-9.14-13.96-2.19-5.36-3.29-11.09-3.29-17.19v-.25c0-6.09,1.1-11.8,3.29-17.13,2.19-5.32,5.24-10,9.14-14.02,3.9-4.02,8.57-7.19,14.02-9.51,5.44-2.32,11.46-3.47,18.04-3.47,3.98,0,7.62.32,10.91.97,3.29.65,6.28,1.54,8.96,2.68,2.68,1.14,5.16,2.52,7.44,4.15,2.28,1.63,4.39,3.41,6.34,5.36l-11.94,13.77c-3.33-3-6.73-5.36-10.18-7.07-3.46-1.71-7.34-2.56-11.64-2.56-3.58,0-6.89.69-9.93,2.07-3.05,1.38-5.67,3.29-7.86,5.73-2.19,2.44-3.9,5.26-5.12,8.47-1.22,3.21-1.83,6.64-1.83,10.3v.24c0,3.66.61,7.11,1.83,10.36,1.22,3.25,2.9,6.1,5.06,8.53,2.15,2.44,4.75,4.37,7.8,5.79,3.05,1.42,6.4,2.13,10.06,2.13,4.88,0,9-.89,12.37-2.68,3.37-1.79,6.72-4.22,10.06-7.31l11.95,12.07c-2.19,2.36-4.47,4.47-6.83,6.34Z"/><path class="cls-1" d="m541.86,202.72v-17.8h37.54v17.8h-37.54Z"/><path class="cls-1" d="m661.69,231.61l-41.33-54.25v54.25h-18.53v-85.33h17.31l39.98,52.54v-52.54h18.53v85.33h-15.97Z"/><path class="cls-1" d="m705.08,231.61v-85.33h18.77v85.33h-18.77Z"/><path class="cls-1" d="m770.06,163.23v18.41h40.72v16.95h-40.72v33.03h-18.77v-85.33h64.97v16.94h-46.2Z"/><path class="cls-1" d="m838.2,231.61v-85.33h18.77v85.33h-18.77Z"/><path class="cls-1" d="m952.55,224.18c-2.36,1.87-4.94,3.47-7.74,4.81-2.8,1.34-5.87,2.36-9.2,3.05-3.33.69-7.07,1.04-11.22,1.04-6.26,0-12.07-1.14-17.43-3.41-5.36-2.28-10-5.38-13.9-9.33-3.9-3.94-6.95-8.6-9.14-13.96-2.19-5.36-3.29-11.09-3.29-17.19v-.25c0-6.09,1.1-11.8,3.29-17.13,2.19-5.32,5.24-10,9.14-14.02,3.9-4.02,8.58-7.19,14.02-9.51s11.46-3.47,18.04-3.47c3.98,0,7.62.32,10.91.97,3.29.65,6.28,1.54,8.96,2.68,2.68,1.14,5.16,2.52,7.44,4.15,2.27,1.63,4.39,3.41,6.34,5.36l-11.95,13.77c-3.33-3-6.73-5.36-10.18-7.07-3.46-1.71-7.34-2.56-11.64-2.56-3.58,0-6.89.69-9.93,2.07-3.05,1.38-5.67,3.29-7.86,5.73-2.19,2.44-3.9,5.26-5.12,8.47-1.22,3.21-1.83,6.64-1.83,10.3v.24c0,3.66.61,7.11,1.83,10.36s2.91,6.1,5.06,8.53c2.15,2.44,4.75,4.37,7.8,5.79,3.05,1.42,6.4,2.13,10.06,2.13,4.88,0,9-.89,12.37-2.68,3.37-1.79,6.72-4.22,10.06-7.31l11.94,12.07c-2.19,2.36-4.47,4.47-6.83,6.34Z"/><path class="cls-1" d="m980.46,231.61v-85.33h64.24v16.7h-45.71v17.31h40.23v16.7h-40.23v17.92h46.32v16.7h-64.85Z"/><path class="cls-1" d="m1128.08,231.61l-41.33-54.25v54.25h-18.53v-85.33h17.31l39.98,52.54v-52.54h18.53v85.33h-15.97Z"/><path class="cls-1" d="m1209.27,163.59v68.02h-18.77v-68.02h-25.96v-17.31h70.7v17.31h-25.97Z"/><path class="cls-1" d="m628.84,370.46c-2.36,1.87-4.94,3.47-7.74,4.81-2.8,1.34-5.87,2.36-9.2,3.05s-7.07,1.04-11.21,1.04c-6.26,0-12.07-1.14-17.43-3.41-5.36-2.28-10-5.38-13.9-9.33-3.9-3.94-6.95-8.6-9.14-13.96-2.19-5.36-3.29-11.09-3.29-17.19v-.25c0-6.09,1.1-11.8,3.29-17.13s5.24-10,9.14-14.02c3.9-4.02,8.57-7.19,14.02-9.51,5.44-2.32,11.46-3.47,18.04-3.47,3.98,0,7.62.32,10.91.97,3.29.65,6.28,1.54,8.96,2.68,2.68,1.14,5.16,2.52,7.44,4.15,2.27,1.63,4.39,3.41,6.34,5.36l-11.95,13.77c-3.33-3-6.73-5.36-10.18-7.07-3.45-1.71-7.33-2.56-11.64-2.56-3.58,0-6.89.69-9.93,2.07-3.05,1.38-5.67,3.29-7.86,5.73-2.2,2.44-3.9,5.26-5.12,8.47-1.22,3.21-1.83,6.64-1.83,10.3v.24c0,3.66.61,7.11,1.83,10.36,1.22,3.25,2.91,6.1,5.06,8.53,2.15,2.44,4.75,4.37,7.8,5.79s6.4,2.13,10.06,2.13c4.88,0,9-.89,12.37-2.68,3.37-1.79,6.72-4.22,10.06-7.31l11.95,12.07c-2.19,2.36-4.47,4.47-6.83,6.34Z"/><path class="cls-1" d="m656.75,377.9v-85.33h18.77v68.39h42.54v16.94h-61.32Z"/><path class="cls-1" d="m808.7,357.66c-1.75,4.8-4.25,8.8-7.49,12.01-3.25,3.21-7.19,5.61-11.83,7.19-4.63,1.59-9.79,2.38-15.48,2.38-11.46,0-20.48-3.17-27.06-9.51-6.58-6.34-9.87-15.8-9.87-28.4v-48.76h18.77v48.27c0,6.99,1.62,12.25,4.87,15.79,3.25,3.54,7.76,5.3,13.53,5.3s10.28-1.71,13.53-5.12c3.25-3.41,4.87-8.53,4.87-15.36v-48.88h18.78v48.15c0,6.5-.87,12.15-2.62,16.95Z"/><path class="cls-1" d="m906.72,364.73c-1.5,2.93-3.65,5.36-6.45,7.31-2.8,1.95-6.16,3.41-10.1,4.39-3.94.98-8.29,1.46-13.08,1.46h-40.53v-85.33h39.55c8.76,0,15.63,1.99,20.62,5.97,4.99,3.98,7.48,9.35,7.48,16.09v.24c0,2.44-.3,4.59-.91,6.46-.61,1.87-1.41,3.56-2.42,5.06-1.01,1.5-2.18,2.82-3.51,3.96-1.33,1.14-2.77,2.11-4.3,2.93,4.93,1.87,8.82,4.41,11.65,7.62s4.25,7.66,4.25,13.35v.24c0,3.9-.75,7.32-2.25,10.24Zm-21.03-46.93c0-2.84-1.06-5.02-3.17-6.52-2.11-1.5-5.16-2.25-9.14-2.25h-18.53v18.04h17.31c4.15,0,7.44-.71,9.87-2.13,2.44-1.42,3.66-3.72,3.66-6.89v-.24Zm4.75,34.13c0-2.84-1.1-5.1-3.29-6.77s-5.73-2.5-10.61-2.5h-21.7v18.77h22.31c4.15,0,7.4-.75,9.75-2.25,2.36-1.5,3.54-3.84,3.54-7.01v-.24Z"/><path class="cls-4" d="m49.65,274.41c-1.09,0-1.95-1.03-1.95-2.34,0-35.14-20.52-63.72-45.75-63.72-1.09,0-1.95-1.03-1.95-2.34s.86-2.33,1.95-2.33c25.22,0,45.74-28.57,45.75-63.7.02-1.33.87-2.34,1.95-2.34s1.95,1.03,1.95,2.34c0,.04,0,.11,0,.19.08,35.03,20.6,63.51,45.75,63.51,1.09,0,1.95,1.02,1.95,2.33s-.86,2.34-1.95,2.34c-25.23,0-45.75,28.59-45.75,63.72,0,1.31-.85,2.34-1.94,2.34Z"/><path class="cls-2" d="m120.67,176.88c-.54,0-.97-.51-.97-1.17,0-17.42-10.18-31.6-22.69-31.6-.54,0-.97-.51-.97-1.17s.43-1.16.97-1.16c12.5,0,22.68-14.17,22.69-31.59,0-.66.43-1.17.97-1.17s.97.51.97,1.17v.05c.03,17.4,10.21,31.53,22.68,31.53.54,0,.97.51.97,1.16s-.43,1.17-.97,1.17c-12.51,0-22.69,14.18-22.69,31.6,0,.65-.42,1.17-.97,1.17Z"/><path class="cls-3" d="m133.52,299.85c-.78,0-1.4-.74-1.4-1.68,0-25.05-14.63-45.43-32.62-45.43-.78,0-1.4-.74-1.4-1.67s.61-1.67,1.4-1.67c17.98,0,32.61-20.37,32.62-45.41.01-.95.62-1.68,1.4-1.68s1.4.74,1.4,1.68v.08c.05,25.02,14.67,45.33,32.61,45.33.78,0,1.4.73,1.4,1.67s-.61,1.67-1.4,1.67c-17.98,0-32.62,20.38-32.62,45.43,0,.94-.61,1.68-1.39,1.68Z"/><path class="cls-4" d="m1421.23,274.41c1.09,0,1.95-1.03,1.95-2.34,0-35.14,20.52-63.72,45.75-63.72,1.09,0,1.95-1.03,1.95-2.34s-.86-2.33-1.95-2.33c-25.22,0-45.74-28.57-45.75-63.7-.02-1.33-.87-2.34-1.95-2.34-1.09,0-1.95,1.03-1.95,2.34,0,.04,0,.11,0,.19-.08,35.03-20.6,63.51-45.75,63.51-1.09,0-1.95,1.02-1.95,2.33,0,1.31.86,2.34,1.95,2.34,25.23,0,45.75,28.59,45.75,63.72,0,1.31.85,2.34,1.94,2.34Z"/><path class="cls-2" d="m1350.2,176.88c.54,0,.97-.51.97-1.17,0-17.42,10.18-31.6,22.69-31.6.54,0,.97-.51.97-1.17,0-.65-.43-1.16-.97-1.16-12.5,0-22.68-14.17-22.69-31.59,0-.66-.43-1.17-.97-1.17-.54,0-.97.51-.97,1.17v.05c-.03,17.4-10.21,31.53-22.68,31.53-.54,0-.97.51-.97,1.16,0,.65.43,1.17.97,1.17,12.51,0,22.69,14.18,22.69,31.6,0,.65.42,1.17.97,1.17Z"/><path class="cls-3" d="m1337.36,299.85c.78,0,1.4-.74,1.4-1.68,0-25.05,14.63-45.43,32.62-45.43.78,0,1.4-.74,1.4-1.67,0-.93-.61-1.67-1.4-1.67-17.98,0-32.61-20.37-32.62-45.41-.01-.95-.62-1.68-1.4-1.68-.78,0-1.4.74-1.4,1.68v.08c-.05,25.02-14.67,45.33-32.61,45.33-.78,0-1.4.73-1.4,1.67,0,.94.61,1.67,1.4,1.67,17.98,0,32.62,20.38,32.62,45.43,0,.94.61,1.68,1.39,1.68Z"/><polygon class="cls-1" points="721.54 450.27 709.03 494.63 695.67 450.63 695.58 450.32 688.34 450.33 675.07 494.7 662.32 450.7 662.22 450.39 655.18 450.4 671.54 504.05 678.63 504.04 691.9 459.64 705.36 503.99 712.45 503.97 728.59 450.26 721.54 450.27"/><path class="cls-1" d="m806.88,456.76c-2.56-2.49-5.62-4.46-9.11-5.86-3.47-1.39-7.27-2.1-11.38-2.1-4.07,0-7.89.73-11.37,2.14-1.01.41-2.03.91-3.18,1.55-1.16-.64-2.18-1.13-3.19-1.54-3.47-1.39-7.27-2.1-11.38-2.1-4.07,0-7.89.73-11.37,2.14-3.48,1.41-6.53,3.4-9.08,5.89-2.55,2.5-4.57,5.5-6.01,8.92-1.44,3.42-2.16,7.22-2.15,11.29,0,4.07.75,7.86,2.2,11.28,1.45,3.42,3.48,6.41,6.04,8.9,2.56,2.49,5.63,4.46,9.11,5.86,3.46,1.39,7.27,2.1,11.31,2.1h.07c4.07,0,7.89-.73,11.37-2.14,1.01-.41,2.02-.9,3.18-1.55,1.16.64,2.18,1.13,3.19,1.54,3.47,1.39,7.27,2.1,11.38,2.1,4.07,0,7.89-.73,11.37-2.14,3.48-1.41,6.53-3.4,9.08-5.89,2.55-2.5,4.57-5.5,6.01-8.92,1.44-3.42,2.16-7.22,2.15-11.29,0-4.06-.75-7.86-2.2-11.28-1.45-3.42-3.48-6.41-6.04-8.9Zm-69.87,28.87c-1-2.7-1.52-5.57-1.52-8.54,0-2.97.49-5.85,1.49-8.55.99-2.7,2.44-5.1,4.3-7.14,1.86-2.04,4.16-3.69,6.85-4.91,2.68-1.22,5.76-1.84,9.15-1.84l.05-.43h0v.43c3.35,0,6.39.6,9.06,1.79-.15.13-.3.27-.45.41-2.55,2.5-4.57,5.5-6.01,8.92-1.44,3.42-2.16,7.22-2.15,11.29,0,4.07.75,7.86,2.2,11.28,1.45,3.41,3.48,6.41,6.04,8.9.14.14.3.27.45.4-2.67,1.2-5.73,1.82-9.16,1.82-3.37,0-6.43-.61-9.1-1.81-2.69-1.21-5-2.85-6.87-4.88-1.87-2.03-3.33-4.43-4.33-7.12Zm42.13-8.63c0,2.97-.49,5.85-1.49,8.55-.99,2.7-2.44,5.1-4.3,7.14-.42.46-.89.92-1.44,1.4-.55-.48-1.02-.94-1.44-1.4-1.87-2.03-3.33-4.43-4.33-7.12-1-2.7-1.52-5.57-1.52-8.54,0-2.97.49-5.85,1.49-8.55.99-2.7,2.44-5.1,4.3-7.14.41-.46.89-.92,1.44-1.4.55.49,1.03.95,1.44,1.4,1.87,2.03,3.33,4.43,4.33,7.13,1,2.7,1.51,5.57,1.52,8.54Zm7.32-22.84v.43c3.36,0,6.43.61,9.1,1.81,2.69,1.21,5,2.85,6.87,4.88,1.87,2.03,3.33,4.43,4.33,7.13,1,2.7,1.51,5.57,1.52,8.54,0,2.97-.49,5.85-1.49,8.55-.99,2.7-2.44,5.1-4.3,7.14-1.86,2.04-4.17,3.69-6.85,4.91-2.68,1.22-5.76,1.84-9.2,1.84-3.35,0-6.39-.6-9.06-1.79.15-.13.3-.27.45-.41,2.55-2.5,4.57-5.5,6.01-8.92,1.44-3.42,2.16-7.22,2.15-11.29,0-4.06-.75-7.86-2.2-11.28-1.45-3.42-3.49-6.41-6.05-8.9-.14-.14-.3-.27-.45-.4,2.67-1.2,5.74-1.82,9.1-1.82l.05-.43h0Zm-29.15,50.64h0,0s0,0,0,0Z"/><path class="cls-1" d="m850.03,453.62c-3.24-2.37-7.7-3.57-13.32-3.57l-16.2.03.11,53.69h6.39s-.05-24.56-.05-24.56l9.81-.02c5.58-.01,10.06-1.24,13.31-3.66,3.28-2.44,4.94-6.14,4.93-10.98,0-4.84-1.69-8.52-4.98-10.93Zm-14.61,1.79v.43c2.36,0,4.4.23,6.04.68,1.64.45,2.96,1.08,3.93,1.88.96.8,1.67,1.73,2.1,2.78.44,1.06.66,2.2.66,3.38,0,1.23-.22,2.4-.65,3.46-.43,1.05-1.13,1.97-2.08,2.74-.97.78-2.29,1.43-3.93,1.91-1.66.49-3.71.74-6.11.74l-8.43.02-.04-17.57,8.43-.02.08-.43h0Z"/><path class="cls-1" d="m887.34,476.9c-2.06-1.12-4.35-2.04-6.8-2.71-2.4-.66-4.64-1.42-6.65-2.24-1.98-.82-3.66-1.87-5-3.15-1.29-1.23-1.94-2.99-1.94-5.25,0-1.56.31-2.94.94-4.09.62-1.15,1.47-2.11,2.5-2.84,1.05-.74,2.25-1.3,3.57-1.66,1.33-.36,2.71-.55,4.12-.55,4.4,0,7.79,1.66,10.09,4.94l.27.38,5.55-4.23-.31-.34c-2.18-2.42-4.59-4.14-7.15-5.1-2.53-.95-5.37-1.43-8.5-1.43-2.23,0-4.43.32-6.55.93-2.13.61-4.07,1.57-5.76,2.84-1.7,1.28-3.07,2.91-4.09,4.85-1.02,1.94-1.53,4.25-1.53,6.84,0,2.49.42,4.6,1.24,6.26.82,1.66,1.91,3.06,3.26,4.17,1.33,1.09,2.86,2,4.55,2.71,1.65.69,3.39,1.32,5.17,1.87,1.76.54,3.47,1.09,5.12,1.63,1.62.53,3.08,1.2,4.34,2,1.24.78,2.25,1.76,3.01,2.92.74,1.14,1.12,2.61,1.13,4.36,0,1.46-.33,2.77-1,3.89-.68,1.14-1.55,2.12-2.59,2.9-1.05.79-2.24,1.4-3.56,1.8-1.32.41-2.66.62-4.02.62-2.74,0-5.14-.57-7.14-1.68-2.01-1.12-3.6-2.64-4.73-4.5l-.24-.4-5.8,4.04.26.35c2.13,2.83,4.76,4.9,7.81,6.13,3.01,1.22,6.23,1.84,9.57,1.84h.05c2.18,0,4.38-.37,6.53-1.08,2.15-.71,4.12-1.74,5.86-3.06,1.75-1.33,3.17-3,4.24-4.96,1.07-1.97,1.61-4.21,1.61-6.66,0-3.26-.74-5.88-2.17-7.79-1.41-1.88-3.19-3.41-5.28-4.55Zm-10.85,27.67h0,0s0,0,0,0Z"/><path class="cls-1" d="m907.86,497.18c-.85-.91-1.96-1.36-3.31-1.36-1.35,0-2.46.47-3.31,1.38-.84.9-1.26,1.94-1.26,3.09,0,1.15.43,2.19,1.27,3.09.85.91,1.96,1.37,3.3,1.37h.01c1.35,0,2.46-.47,3.31-1.38.84-.9,1.26-1.94,1.26-3.09,0-1.15-.43-2.19-1.27-3.09Zm-3.31,7.12h0s0,0,0,0Z"/><rect class="cls-1" x="901.41" y="449.7" width="6.31" height="42.58"/><path class="cls-1" d="m914.48,451.61h-1.74s0-.67,0-.67h4.2s0,.67,0,.67h-1.74v4.59s-.73,0-.73,0v-4.59Z"/><path class="cls-1" d="m918.13,450.95h1.09s1.71,3.98,1.71,3.98h.03l1.7-3.98h1.09s0,5.25,0,5.25h-.73s0-4.32,0-4.32h-.02l-1.82,4.32h-.49s-1.82-4.32-1.82-4.32h-.02v4.32s-.73,0-.73,0v-5.25Z"/><path class="cls-1" d="m559.14,447.01h5.76v26.27h.15c1.57-1.87,3.41-3.32,5.5-4.35,2.09-1.03,4.39-1.55,6.9-1.55,2.71,0,5.18.46,7.42,1.37,2.24.91,4.14,2.18,5.72,3.8,1.57,1.62,2.8,3.54,3.69,5.76.89,2.21,1.33,4.62,1.33,7.23s-.44,5.02-1.33,7.23c-.89,2.21-2.1,4.13-3.65,5.76-1.55,1.62-3.38,2.89-5.5,3.8-2.12.91-4.38,1.36-6.79,1.36-3.1,0-5.82-.68-8.15-2.03-2.34-1.35-4.05-3.01-5.13-4.98h-.15v6.13h-5.76v-55.79Zm5.76,38.52c0,1.82.28,3.51.85,5.06.56,1.55,1.39,2.9,2.47,4.06,1.08,1.16,2.37,2.07,3.87,2.73,1.5.66,3.18,1,5.06,1s3.55-.33,5.06-1c1.5-.66,2.79-1.57,3.87-2.73,1.08-1.16,1.91-2.51,2.47-4.06.57-1.55.85-3.23.85-5.06s-.28-3.51-.85-5.06c-.57-1.55-1.39-2.9-2.47-4.06-1.08-1.16-2.37-2.07-3.87-2.73-1.5-.66-3.19-1-5.06-1s-3.55.33-5.06,1c-1.5.66-2.79,1.58-3.87,2.73-1.08,1.16-1.91,2.51-2.47,4.06-.57,1.55-.85,3.24-.85,5.06Z"/><path class="cls-1" d="m617.22,510.7c-.59,1.48-1.19,2.82-1.81,4.02-.62,1.21-1.35,2.24-2.21,3.1-.86.86-1.89,1.52-3.1,1.99-1.21.47-2.67.7-4.39.7-.84,0-1.71-.05-2.62-.15-.91-.1-1.76-.34-2.55-.74l.74-5.02c.59.25,1.2.41,1.84.48.64.07,1.38.11,2.21.11,1.87,0,3.25-.52,4.13-1.55.89-1.03,1.65-2.41,2.29-4.13l2.36-6.49-14.32-34.76h6.72l10.7,27.08h.15l10.26-27.08h6.27l-16.68,42.43Z"/></svg>
