<svg id="Capa_1" data-name="Capa 1" xmlns="http://www.w3.org/2000/svg" viewBox="0 0 50 50"><title>map-marker</title>
  <path
    d="M26.71.7c.47.06.95.11,1.43.19A17.09,17.09,0,0,1,41.77,11.34,16.78,16.78,0,0,1,42.42,23a43.24,43.24,0,0,1-4.3,9.74A98.39,98.39,0,0,1,27.2,47.89c-1,1.11-1.9,1.12-2.86,0A93.67,93.67,0,0,1,12.2,30.54a32.47,32.47,0,0,1-3.44-9.07A16.86,16.86,0,0,1,14,5.32,16.89,16.89,0,0,1,23.86.81l1-.11Zm-1,26.14A8.75,8.75,0,1,0,17,18,8.75,8.75,0,0,0,25.71,26.84Z"
    style="fill:#ddc082;stroke:#231f20;stroke-miterlimit:10"/>
</svg>
