<svg xmlns="http://www.w3.org/2000/svg" data-name="Layer 1" viewBox="0 0 50 50">
  <defs>
    <linearGradient id="a" x1=".61" x2="49.39" y1="25" y2="25" gradientUnits="userSpaceOnUse">
      <stop offset=".35" stop-color="#231f20"/>
      <stop offset="1" stop-color="#4a4a4a"/>
    </linearGradient>
  </defs>
  <circle cx="25" cy="25" r="24.39" fill="url(#a)"/>
  <path fill="#DDC082"
        d="m10.67 40.16-1.58-1.15V12.28l1.58-1.15v29.02ZM9.5 38.8l.76.56V11.93l-.76.55v26.31Zm5.85 3.85-1.58-1.15V9.79l1.58-1.15v34Zm-1.17-1.36.76.55V9.44l-.76.55v31.29Zm14.84-4.93h-1.75l-.06-.12-11.09-22.98V9.61l12.9 26.75Zm-1.5-.41h.85L16.52 11.4v1.76l11 22.79Zm-1.09.41h-1.75l-.06-.12-8.51-17.64v-3.63l10.32 21.38Zm-1.49-.41h.85l-9.26-19.19v1.75l8.42 17.44Zm-1.14.41h-1.75l-5.94-12.32v-3.63l7.7 15.94Zm-1.49-.41h.85L16.52 22.2v1.75l5.79 12Zm4.46-6.17-.9-1.76 8.89-18.41v3.65l-7.99 16.52Zm-.45-1.77.43.85 7.58-15.7V11.4l-8.01 16.61Zm1.74 4.46-.88-1.81 7.57-15.68v3.63l-6.7 13.87Zm-.43-1.81.42.88 6.29-13.03v-1.75l-6.71 13.9Zm1.75 4.52-.91-1.74 6.28-13.02v3.63l-5.38 11.14Zm-.46-1.75.44.84 4.98-10.32V22.2l-5.42 11.23Zm-15.91 7.96-1.58-1.15V11.05l1.58-1.15v31.49Zm-1.17-1.36.76.56V10.7l-.76.55v28.78Zm28.37.13V11.13l1.58 1.15v26.73l-1.58 1.15Zm.41-28.23v27.42l.76-.56v-26.3l-.76-.55Zm-5.08 30.72V8.64l1.58 1.15V41.5l-1.58 1.15Zm.4-33.21v32.4l.76-.55V10l-.76-.55Zm1.93 31.95V9.9l1.58 1.15v29.19l-1.58 1.15Zm.41-30.69v29.89l.76-.56V11.26l-.76-.55Z"/>
</svg>